<?xml version="1.0" encoding="UTF-8"?>
<svg id="Layer_1" data-name="Layer 1" xmlns="http://www.w3.org/2000/svg" viewBox="0 0 511.78 511.78">
  <defs>
    <style>
      .cls-1 {
        fill: #f15a29;
        stroke-width: 4px;
      }

      .cls-1, .cls-2, .cls-3, .cls-4, .cls-5 {
        stroke-miterlimit: 10;
      }

      .cls-1, .cls-3, .cls-5 {
        stroke: #fff;
      }

      .cls-2, .cls-3, .cls-6 {
        fill: #fff;
      }

      .cls-2, .cls-4 {
        stroke: #231f20;
      }

      .cls-3, .cls-4 {
        stroke-width: 3px;
      }

      .cls-6, .cls-7 {
        stroke-width: 0px;
      }

      .cls-7, .cls-4, .cls-5 {
        fill: #231f20;
      }
    </style>
  </defs>
  <rect class="cls-1" x="2" y="2" width="507.78" height="507.78" rx="113.38" ry="113.38"/>
  <g>
    <path class="cls-3" d="m44.91,328.01h17.4c.75,0,1.51.28,2.26.85l1.13.85c.75.57,1.13,1.28,1.13,2.13v9.95c0,.88-.39,1.62-1.18,2.21l-1.18.89c-.69.51-1.41.76-2.16.76h-2.63l4.84,6.8c.34.48.59.79.73.91.14.13.46.32.96.57l.52.25c.56.28.89.51.99.68.09.17.14.58.14,1.23v1.66h-1.18c-.56,0-.95-.03-1.15-.08-.2-.06-.56-.24-1.06-.55l-.89-.55c-.69-.42-1.25-.98-1.69-1.66l-6.26-9.05h-6.77v11.9h-3.95v-29.75Zm3.95,2.98v11.9h11.71c.56,0,.92-.02,1.08-.06.16-.04.38-.16.66-.36.28-.2.45-.36.49-.49.05-.13.07-.4.07-.83v-8.42c0-.42-.02-.7-.07-.83s-.21-.29-.49-.49c-.28-.2-.5-.32-.66-.36-.16-.04-.52-.06-1.08-.06h-11.71Z"/>
    <path class="cls-3" d="m77.74,357.77l11.29-29.75h5.55l11.52,29.75h-3.95l-2.45-6.16h-15.66l-2.35,6.16h-3.95Zm14.16-27.2h-.19c0,.34-.11.75-.33,1.23l-6.35,17.04h13.69l-6.49-17.04c-.22-.48-.33-.89-.33-1.23Z"/>
    <path class="cls-3" d="m134.93,342.21v.21c.38,0,.82.18,1.32.55l2.26,1.66c.28.23.46.43.54.62.08.18.12.53.12,1.04v7.65c0,.85-.38,1.56-1.13,2.12-.25.17-.63.45-1.13.85-.75.57-1.51.85-2.26.85h-17.97v-29.75h17.4c.75,0,1.51.28,2.26.85l1.13.85c.75.57,1.13,1.28,1.13,2.13v7.27c0,.6-.25,1.08-.75,1.45l-1.6,1.1c-.5.37-.94.55-1.32.55Zm-14.3-11.22v10.2h10.21c.56,0,.93-.02,1.11-.06.17-.04.42-.18.73-.4l1.22-.89c.38-.28.6-.5.66-.64.06-.14.09-.45.09-.94v-5.53c0-.42-.02-.7-.07-.83s-.21-.29-.49-.49c-.28-.2-.5-.32-.66-.36-.16-.04-.52-.06-1.08-.06h-11.71Zm13.78,14.49l-1.03-.77c-.38-.28-.64-.45-.8-.49-.16-.04-.47-.06-.94-.06h-11.01v10.63h12.28c.56,0,.92-.02,1.08-.06.16-.04.38-.16.66-.36.28-.2.45-.36.49-.49.05-.13.07-.4.07-.83v-6.04c0-.45-.03-.75-.09-.89-.06-.14-.3-.35-.71-.64Z"/>
    <path class="cls-3" d="m150.93,328.01h3.95v29.75h-3.95v-29.75Z"/>
    <path class="cls-3" d="m167.81,357.77v-29.75h17.4c.82,0,1.57.28,2.26.85l4.52,3.4c.75.57,1.13,1.13,1.13,1.7v17.85c0,.57-.38,1.13-1.13,1.7l-4.52,3.4c-.69.57-1.44.85-2.26.85h-17.4Zm21.35-7.23v-15.3c0-.57-.38-1.13-1.13-1.7l-2.26-1.7c-.69-.57-1.44-.85-2.26-.85h-11.76v23.8h11.76c.82,0,1.57-.28,2.26-.85l2.26-1.7c.75-.57,1.13-1.13,1.13-1.7Z"/>
  </g>
  <g>
    <path class="cls-4" d="m318.47,328.01h17.4c.75,0,1.51.28,2.26.85l1.13.85c.75.57,1.13,1.28,1.13,2.13v9.95c0,.88-.39,1.62-1.18,2.21l-1.18.89c-.69.51-1.41.76-2.16.76h-2.63l4.84,6.8c.34.48.59.79.73.91s.46.32.96.57l.52.25c.56.28.89.51.99.68.09.17.14.58.14,1.23v1.66h-1.18c-.57,0-.95-.03-1.15-.08s-.56-.24-1.06-.55l-.89-.55c-.69-.42-1.25-.98-1.69-1.66l-6.26-9.05h-6.77v11.9h-3.95v-29.75Zm3.95,2.98v11.9h11.71c.56,0,.92-.02,1.08-.06.16-.04.38-.16.66-.36.28-.2.45-.36.49-.49.05-.13.07-.4.07-.83v-8.42c0-.42-.02-.7-.07-.83-.05-.13-.21-.29-.49-.49-.28-.2-.5-.32-.66-.36-.16-.04-.52-.06-1.08-.06h-11.71Z"/>
    <path class="cls-4" d="m351.3,357.77l11.29-29.75h5.55l11.52,29.75h-3.95l-2.45-6.16h-15.66l-2.35,6.16h-3.95Zm14.16-27.2h-.19c0,.34-.11.75-.33,1.23l-6.35,17.04h13.69l-6.49-17.04c-.22-.48-.33-.89-.33-1.23Z"/>
    <path class="cls-4" d="m408.49,342.21v.21c.38,0,.81.18,1.32.55l2.26,1.66c.28.23.46.43.54.62.08.18.12.53.12,1.04v7.65c0,.85-.38,1.56-1.13,2.12-.25.17-.63.45-1.13.85-.75.57-1.51.85-2.26.85h-17.97v-29.75h17.4c.75,0,1.51.28,2.26.85l1.13.85c.75.57,1.13,1.28,1.13,2.13v7.27c0,.6-.25,1.08-.75,1.45l-1.6,1.1c-.5.37-.94.55-1.32.55Zm-14.3-11.22v10.2h10.21c.56,0,.93-.02,1.11-.06s.42-.18.73-.4l1.22-.89c.38-.28.59-.5.66-.64.06-.14.09-.45.09-.94v-5.53c0-.42-.02-.7-.07-.83-.05-.13-.21-.29-.49-.49-.28-.2-.5-.32-.66-.36-.16-.04-.52-.06-1.08-.06h-11.71Zm13.78,14.49l-1.03-.77c-.38-.28-.64-.45-.8-.49-.16-.04-.47-.06-.94-.06h-11.01v10.63h12.28c.56,0,.92-.02,1.08-.06s.38-.16.66-.36c.28-.2.45-.36.49-.49.05-.13.07-.4.07-.83v-6.04c0-.45-.03-.75-.09-.89-.06-.14-.3-.35-.71-.64Z"/>
    <path class="cls-4" d="m442.73,342.21v.21c.38,0,.81.18,1.32.55l2.26,1.66c.28.23.46.43.54.62.08.18.12.53.12,1.04v7.65c0,.85-.38,1.56-1.13,2.12-.25.17-.63.45-1.13.85-.75.57-1.51.85-2.26.85h-17.97v-29.75h17.4c.75,0,1.51.28,2.26.85l1.13.85c.75.57,1.13,1.28,1.13,2.13v7.27c0,.6-.25,1.08-.75,1.45l-1.6,1.1c-.5.37-.94.55-1.32.55Zm-14.3-11.22v10.2h10.21c.56,0,.93-.02,1.11-.06s.42-.18.73-.4l1.22-.89c.38-.28.59-.5.66-.64.06-.14.09-.45.09-.94v-5.53c0-.42-.02-.7-.07-.83-.05-.13-.21-.29-.49-.49-.28-.2-.5-.32-.66-.36-.16-.04-.52-.06-1.08-.06h-11.71Zm13.78,14.49l-1.03-.77c-.38-.28-.64-.45-.8-.49-.16-.04-.47-.06-.94-.06h-11.01v10.63h12.28c.56,0,.92-.02,1.08-.06s.38-.16.66-.36c.28-.2.45-.36.49-.49.05-.13.07-.4.07-.83v-6.04c0-.45-.03-.75-.09-.89-.06-.14-.3-.35-.71-.64Z"/>
    <path class="cls-4" d="m458.72,328.01h3.95v29.75h-3.95v-29.75Z"/>
    <path class="cls-4" d="m470.62,328.01h24.83v2.98h-10.44v26.78h-3.95v-26.78h-10.44v-2.98Z"/>
  </g>
  <polygon class="cls-5" points="254.85 451.36 254.85 404.1 219.47 404.1 254.85 451.36"/>
  <polygon class="cls-2" points="256.24 464.7 256.24 403.41 291.62 403.41 256.24 464.7"/>
  <polygon class="cls-2" points="255.55 293.78 321.28 404.84 189.81 404.84 255.55 293.78"/>
  <polygon class="cls-5" points="221.44 351.46 253.07 404.84 189.81 404.84 221.44 351.46"/>
  <polygon class="cls-7" points="255.55 417.99 210.6 371.27 300.5 371.27 255.55 417.99"/>
  <polygon class="cls-2" points="247.81 386.68 234.82 373.69 217.06 378.44 243.06 404.44 247.81 386.68"/>
  <polygon class="cls-2" points="263.07 386.35 275.56 373.86 292.63 378.43 267.65 403.41 263.07 386.35"/>
  <polygon class="cls-2" points="336.53 223.92 281.17 253.09 281.17 335.81 359.7 274.86 336.53 223.92"/>
  <polygon class="cls-2" points="255.39 294.42 336.49 47.09 389.97 71.62 255.39 294.42"/>
  <polygon class="cls-5" points="174.1 223.92 229.46 253.09 229.46 335.81 150.93 274.86 174.1 223.92"/>
  <polygon class="cls-5" points="255.55 293.78 175.29 48.28 121.81 72.82 255.55 293.78"/>
  <polygon class="cls-6" points="212.15 199.94 168.96 67.83 140.18 81.03 212.15 199.94"/>
  <polygon class="cls-7" points="298.1 199.94 341.28 67.83 370.06 81.03 298.1 199.94"/>
  <polygon class="cls-6" points="194.62 255.96 180.39 270.19 209.11 284.68 194.62 255.96"/>
  <polygon class="cls-7" points="318.32 255.73 333.01 270.42 304.06 284.68 318.32 255.73"/>
  <polygon class="cls-5" points="255.55 293.78 255.55 370.64 210.01 370.64 255.55 293.78"/>
  <g>
    <polygon class="cls-5" points="255.08 309.48 239.03 282.36 271.13 282.36 255.08 309.48"/>
    <polygon class="cls-2" points="255.08 254.31 271.13 281.43 239.03 281.43 255.08 254.31"/>
  </g>
</svg>