<?xml version="1.0" encoding="UTF-8"?>
<!-- Generator: visioncortex VTracer 0.6.4 -->
<svg version="1.1" xmlns="http://www.w3.org/2000/svg" width="1024" height="1024">
<path d="M0 0 C3.74 0.67 7.47 1.18 11.25 1.58 C11.25 2.24 11.25 2.9 11.25 3.58 C12.5 3.68 13.75 3.79 15.04 3.89 C20.74 4.53 26.12 6 31.62 7.58 C32.71 7.89 33.79 8.2 34.91 8.52 C84.22 22.81 130.99 44.42 173.25 73.58 C173.97 74.08 174.7 74.58 175.45 75.09 C192.55 86.94 208.59 100.17 223.79 114.37 C226.24 116.68 226.24 116.68 229.25 118.58 C229.25 119.24 229.25 119.9 229.25 120.58 C229.79 120.79 230.33 121.01 230.89 121.23 C234.1 123.07 236.5 125.58 239.06 128.21 C239.59 128.74 240.12 129.28 240.67 129.83 C244.2 133.43 247.59 137.12 250.85 140.96 C252.36 142.76 252.36 142.76 254.69 144.96 C256.25 146.58 256.25 146.58 256.25 148.58 C256.91 148.58 257.57 148.58 258.25 148.58 C259.75 150.24 261.17 151.96 262.56 153.71 C263.36 154.71 264.16 155.71 264.99 156.74 C265.74 157.68 266.48 158.62 267.25 159.58 C270.62 163.7 270.62 163.7 274.25 167.58 C275.14 168.71 276.01 169.86 276.87 171.02 C277.4 171.72 277.93 172.43 278.47 173.16 C281.11 176.75 283.72 180.35 286.32 183.97 C287.61 185.71 288.94 187.43 290.3 189.12 C293.66 193.36 296.4 197.99 299.25 202.58 C299.87 203.57 299.87 203.57 300.5 204.59 C308.9 218.13 316.79 231.9 324.31 245.96 C324.71 246.69 325.1 247.42 325.51 248.17 C328.25 253.35 328.25 253.35 328.25 255.58 C328.91 255.91 329.57 256.24 330.25 256.58 C331.27 258.58 331.27 258.58 332.35 261.23 C332.75 262.2 333.16 263.18 333.57 264.18 C334 265.24 334.43 266.3 334.87 267.39 C335.32 268.49 335.77 269.58 336.23 270.71 C337.14 272.95 338.06 275.19 338.96 277.43 C340.07 280.13 341.19 282.82 342.33 285.5 C355.07 315.73 363.27 347.99 368.77 380.24 C369.14 382.59 369.14 382.59 370.25 384.58 C370.44 386.24 370.57 387.91 370.69 389.58 C371 393.76 371.4 397.92 371.93 402.08 C376.23 436.86 376 471.92 373.51 506.81 C373.33 509.35 373.17 511.88 373.03 514.42 C372.96 515.64 372.88 516.86 372.81 518.12 C372.72 519.74 372.72 519.74 372.63 521.38 C372.21 524.95 371.27 528.15 370.25 531.58 C369.8 533.81 369.38 536.05 368.99 538.29 C368.67 540.16 368.67 540.16 368.34 542.06 C368.13 543.35 367.91 544.63 367.69 545.96 C367.46 547.23 367.24 548.51 367.02 549.82 C365.89 556.4 364.89 562.94 364.25 569.58 C363.59 569.58 362.93 569.58 362.25 569.58 C362.16 570.61 362.08 571.64 361.99 572.7 C361.17 579.2 359.21 585.43 357.37 591.71 C357.18 592.38 356.98 593.05 356.78 593.75 C349.6 618.21 340.39 641.64 329.25 664.58 C328.82 665.47 328.4 666.37 327.96 667.29 C316.17 691.98 301.35 714.53 285.52 736.76 C284.4 738.36 283.33 740 282.27 741.64 C279.83 745.19 277.09 748.35 274.25 751.58 C273.28 752.7 272.32 753.82 271.35 754.94 C268.44 758.33 268.44 758.33 267.01 759.98 C264.76 762.6 262.54 765.22 260.4 767.93 C254.07 775.94 247.01 783.09 239.76 790.27 C237.68 792.34 235.61 794.41 233.53 796.48 C232.19 797.82 230.84 799.16 229.49 800.5 C228.89 801.11 228.28 801.72 227.65 802.34 C223.34 806.61 218.84 810.62 214.25 814.58 C213.15 815.54 212.06 816.5 210.97 817.47 C203 824.43 194.74 830.88 186.21 837.14 C184.35 838.51 182.51 839.89 180.67 841.29 C123.54 884.41 43.82 923.61 -28.8 926.31 C-29.77 926.44 -29.77 926.44 -30.75 926.58 C-31.08 927.24 -31.41 927.9 -31.75 928.58 C-32.62 928.63 -33.49 928.68 -34.38 928.73 C-35.68 928.8 -36.98 928.88 -38.31 928.96 C-39.06 929 -39.81 929.04 -40.58 929.08 C-45.5 929.36 -50.4 929.7 -55.31 930.09 C-85.81 932.42 -116.39 932.54 -146.88 929.82 C-151.25 929.45 -155.62 929.2 -160 928.96 C-161.06 928.9 -161.06 928.9 -162.14 928.83 C-163.67 928.75 -165.21 928.66 -166.75 928.58 C-166.75 927.92 -166.75 927.26 -166.75 926.58 C-167.5 926.54 -168.26 926.51 -169.03 926.47 C-178.13 925.91 -186.91 924.4 -195.81 922.52 C-196.55 922.36 -197.29 922.21 -198.05 922.05 C-243.96 912.43 -290.18 896.25 -330.7 872.37 C-333.48 870.74 -336.28 869.21 -339.13 867.71 C-367.12 852.53 -393.32 833.07 -416.75 811.58 C-418.12 810.37 -419.5 809.16 -420.88 807.96 C-421.52 807.39 -422.16 806.83 -422.82 806.26 C-424.13 805.12 -425.45 803.99 -426.78 802.87 C-430.82 799.44 -434.34 795.86 -437.77 791.81 C-440.16 789.12 -442.69 786.6 -445.25 784.08 C-449.63 779.74 -453.77 775.29 -457.75 770.58 C-458.55 769.66 -459.34 768.74 -460.17 767.8 C-467.74 759.01 -474.8 749.86 -481.75 740.58 C-482.24 739.93 -482.73 739.27 -483.24 738.6 C-493.5 724.89 -502.77 710.8 -511.37 695.99 C-512.16 694.64 -512.16 694.64 -512.97 693.26 C-513.66 692.05 -513.66 692.05 -514.38 690.82 C-515.72 688.55 -515.72 688.55 -517.36 686.48 C-518.75 684.58 -518.75 684.58 -519.75 681.58 C-520.69 679.65 -521.65 677.74 -522.63 675.83 C-523.22 674.67 -523.81 673.52 -524.41 672.32 C-524.72 671.71 -525.03 671.1 -525.35 670.47 C-529.99 661.35 -534.54 652.21 -538.5 642.77 C-538.81 642.03 -539.12 641.29 -539.44 640.53 C-540.78 637.26 -541.93 634.05 -542.83 630.63 C-543.13 629.62 -543.44 628.62 -543.75 627.58 C-544.41 627.25 -545.07 626.92 -545.75 626.58 C-546.39 624.71 -546.39 624.71 -547 622.14 C-548.3 617.07 -549.87 612.15 -551.56 607.21 C-554.25 599.31 -556.6 591.34 -558.83 583.31 C-559.19 582.04 -559.19 582.04 -559.55 580.74 C-559.76 579.98 -559.97 579.23 -560.18 578.45 C-560.71 576.52 -560.71 576.52 -561.75 574.58 C-562.08 572.85 -562.36 571.12 -562.63 569.38 C-563.59 563.45 -564.73 557.57 -565.91 551.67 C-568.77 537.36 -571.2 523.1 -572.75 508.58 C-572.85 507.71 -572.96 506.83 -573.06 505.93 C-576.96 472.23 -575.64 437.6 -572.03 403.93 C-571.7 400.5 -571.7 400.5 -571.77 396.71 C-571.75 393.58 -571.75 393.58 -570.75 392.58 C-570.39 390.79 -570.09 388.99 -569.81 387.19 C-569.62 386.04 -569.43 384.89 -569.24 383.71 C-569.04 382.45 -568.84 381.19 -568.63 379.89 C-562.63 343.98 -553.94 305.16 -536.72 272.74 C-535.55 270.52 -535.55 270.52 -535.75 267.58 C-535.09 267.58 -534.43 267.58 -533.75 267.58 C-533.47 266.7 -533.2 265.83 -532.91 264.92 C-521.09 230.89 -497.18 197.51 -474.75 169.58 C-473.97 168.6 -473.18 167.61 -472.38 166.6 C-470.2 163.9 -467.98 161.24 -465.75 158.58 C-465.1 157.8 -465.1 157.8 -464.43 157 C-450.36 140.23 -435.47 123.76 -418.75 109.58 C-417.64 108.61 -416.53 107.63 -415.42 106.66 C-391.93 86.03 -366.45 68.78 -339.75 52.58 C-339.11 52.19 -338.48 51.8 -337.82 51.4 C-298.56 27.58 -298.56 27.58 -286.75 27.58 C-286.42 26.92 -286.09 26.26 -285.75 25.58 C-283.75 24.83 -283.75 24.83 -281.19 24.14 C-276.6 22.85 -272.2 21.31 -267.75 19.58 C-267.75 18.92 -267.75 18.26 -267.75 17.58 C-266.61 17.48 -265.47 17.37 -264.3 17.27 C-259.6 16.68 -255.42 15.24 -251 13.58 C-249.53 13.04 -248.05 12.5 -246.58 11.96 C-245.94 11.72 -245.3 11.48 -244.64 11.23 C-242.69 10.56 -240.75 10.06 -238.75 9.58 C-236.99 9.11 -235.23 8.64 -233.47 8.17 C-232.46 7.9 -231.46 7.64 -230.42 7.36 C-228.31 6.8 -226.19 6.23 -224.08 5.66 C-223.08 5.4 -222.07 5.13 -221.03 4.86 C-220.12 4.61 -219.2 4.37 -218.25 4.12 C-215.75 3.58 -215.75 3.58 -211.75 3.58 C-211.42 2.92 -211.09 2.26 -210.75 1.58 C-208.77 1.09 -208.77 1.09 -206 0.71 C-202.14 0.13 -198.3 -0.49 -194.48 -1.29 C-183.19 -3.64 -171.88 -5.26 -160.44 -6.61 C-159.38 -6.73 -159.38 -6.73 -158.29 -6.86 C-105.47 -13.11 -52.15 -9.77 0 0 Z M-113.75 101.58 C-116.56 111.92 -119.17 122.28 -121.64 132.7 C-121.99 134.18 -122.35 135.66 -122.7 137.14 C-123.62 140.99 -124.53 144.83 -125.44 148.67 C-126.38 152.61 -127.32 156.55 -128.26 160.5 C-130.09 168.19 -131.92 175.89 -133.75 183.58 C-136.32 183.1 -138.88 182.63 -141.45 182.15 C-142.53 181.95 -142.53 181.95 -143.64 181.74 C-148 180.93 -152.34 180.04 -156.67 179.05 C-159.11 178.5 -161.55 177.97 -164 177.46 C-164.79 177.29 -165.58 177.12 -166.39 176.95 C-168.72 176.5 -168.72 176.5 -170.99 176.71 C-173.6 176.59 -175.13 176.16 -177.55 175.27 C-183.84 173.12 -190.3 171.8 -196.8 170.41 C-198.14 170.12 -199.48 169.83 -200.83 169.54 C-203.62 168.94 -206.42 168.34 -209.22 167.75 C-212.8 166.98 -216.37 166.21 -219.95 165.43 C-222.71 164.83 -225.48 164.24 -228.24 163.65 C-230.2 163.23 -232.16 162.8 -234.12 162.37 C-235.31 162.12 -236.5 161.87 -237.73 161.61 C-238.77 161.39 -239.82 161.16 -240.89 160.93 C-243.81 160.57 -245.93 160.83 -248.75 161.58 C-250.27 167.32 -251.78 173.07 -253.29 178.81 C-253.8 180.76 -254.31 182.71 -254.83 184.66 C-260.24 201.91 -260.24 201.91 -262.75 219.58 C-261.6 219.82 -260.45 220.06 -259.27 220.31 C-254.95 221.22 -250.63 222.16 -246.32 223.1 C-244.46 223.5 -242.61 223.89 -240.75 224.28 C-213.51 230 -213.51 230 -205.74 239.97 C-201.26 247.28 -203.71 257.79 -205.58 265.6 C-205.85 266.69 -206.13 267.77 -206.41 268.89 C-206.7 270.09 -206.99 271.29 -207.29 272.52 C-207.92 275.15 -208.57 277.78 -209.22 280.4 C-210.28 284.69 -211.33 288.99 -212.37 293.29 C-213.53 298.06 -214.69 302.82 -215.85 307.58 C-219.17 321.16 -222.44 334.75 -225.7 348.35 C-225.96 349.41 -226.21 350.48 -226.47 351.57 C-227.51 355.91 -228.55 360.24 -229.59 364.58 C-232.42 376.42 -235.27 388.26 -238.11 400.1 C-238.48 401.65 -238.48 401.65 -238.86 403.22 C-241.95 416.08 -245.04 428.95 -248.14 441.81 C-248.46 443.13 -248.78 444.45 -249.1 445.77 C-250.48 451.52 -251.87 457.28 -253.26 463.03 C-253.73 464.95 -254.19 466.87 -254.65 468.8 C-254.96 470.05 -254.96 470.05 -255.27 471.33 C-256.17 475.07 -257.02 478.81 -257.75 482.58 C-260.18 491.46 -263.63 497.85 -271.75 502.58 C-282.26 506.08 -293.94 502.03 -304.31 499.58 C-306.79 499.01 -309.26 498.44 -311.73 497.87 C-313.26 497.52 -314.79 497.16 -316.32 496.8 C-320 495.9 -320 495.9 -323.75 495.58 C-330.82 511.09 -337.84 526.61 -344.56 542.27 C-345.07 543.45 -345.58 544.63 -346.11 545.84 C-346.57 546.94 -347.04 548.03 -347.52 549.15 C-347.93 550.11 -348.34 551.06 -348.76 552.05 C-349.61 554.22 -350.26 556.3 -350.75 558.58 C-341.28 560.75 -331.81 562.92 -322.33 565.08 C-318.09 566.05 -313.84 567.02 -309.6 568 C-308.02 568.36 -306.45 568.72 -304.88 569.08 C-304.2 569.24 -303.52 569.4 -302.82 569.56 C-299.4 570.34 -296.26 570.74 -292.75 570.58 C-292.75 570.91 -292.75 571.24 -292.75 571.58 C-289.78 571.91 -286.81 572.24 -283.75 572.58 C-283.74 571.21 -283.73 569.84 -283.72 568.42 C-283.68 563.3 -283.62 558.17 -283.54 553.05 C-283.52 550.84 -283.49 548.63 -283.48 546.42 C-283.46 543.22 -283.41 540.03 -283.36 536.84 C-283.36 535.86 -283.36 534.89 -283.36 533.88 C-283.12 522.66 -278.88 513.95 -271.16 505.93 C-258 493.76 -240.69 493.13 -223.76 493.07 C-222.08 493.05 -220.39 493.03 -218.71 493.01 C-214.32 492.97 -209.94 492.94 -205.56 492.91 C-201.07 492.88 -196.58 492.83 -192.08 492.79 C-183.31 492.7 -174.53 492.64 -165.75 492.58 C-163.97 487.41 -162.33 482.28 -161.07 476.96 C-160.78 475.76 -160.5 474.57 -160.2 473.34 C-159.76 471.48 -159.76 471.48 -159.31 469.58 C-159.01 468.3 -158.7 467.02 -158.38 465.69 C-157.07 460.19 -155.77 454.67 -154.51 449.15 C-154.34 448.38 -154.16 447.61 -153.98 446.82 C-153.54 444.87 -153.11 442.92 -152.67 440.96 C-151.75 437.58 -151.75 437.58 -150.28 434.16 C-148.59 430.2 -147.55 426.32 -146.56 422.14 C-146.39 421.41 -146.21 420.68 -146.03 419.93 C-145.6 418.15 -145.17 416.36 -144.75 414.58 C-129.66 417.38 -114.61 420.36 -99.57 423.44 C-97.72 423.82 -95.86 424.2 -94.01 424.57 C-78 427.77 -62.09 431.51 -47.75 439.58 C-46.97 440.01 -46.18 440.43 -45.37 440.88 C-39.74 443.96 -34.18 447.15 -28.75 450.58 C-26.99 447.5 -26.76 446.46 -26.88 442.71 C-26.92 439.56 -26.6 438.21 -25.38 435.14 C-22.04 431.88 -19.79 431.6 -15.23 431.41 C-11.77 431.65 -9.55 432.55 -6.75 434.58 C-4.87 437.57 -4.51 439.85 -4.52 443.35 C-4.52 444.29 -4.52 445.23 -4.52 446.2 C-4.54 447.21 -4.55 448.21 -4.56 449.25 C-4.56 450.81 -4.56 450.81 -4.56 452.4 C-4.58 455.71 -4.6 459.02 -4.63 462.33 C-4.64 464.58 -4.65 466.82 -4.65 469.07 C-4.68 474.57 -4.71 480.08 -4.75 485.58 C-6.07 486.24 -7.39 486.9 -8.75 487.58 C-8.75 489.23 -8.75 490.88 -8.75 492.58 C-7.54 492.6 -6.33 492.62 -5.09 492.64 C-0.55 492.72 3.99 492.81 8.53 492.9 C10.49 492.94 12.44 492.97 14.4 493 C31.7 493.29 45.71 493.96 60.56 503.77 C71.04 514.73 73.78 527 73.47 541.8 C73.46 543.47 73.46 543.47 73.44 545.16 C73.41 548.66 73.36 552.15 73.31 555.64 C73.26 559.17 73.22 562.7 73.19 566.22 C73.17 568.41 73.14 570.59 73.1 572.77 C73.09 573.75 73.08 574.74 73.07 575.75 C73.05 577.04 73.05 577.04 73.03 578.36 C73.1 580.87 73.1 580.87 75.25 583.58 C97.47 556.39 108.45 519.44 105.75 484.6 C103.09 460.63 91.27 440.25 72.57 425.24 C65.59 419.94 58.05 415.57 50.25 411.58 C52.71 409.12 54.77 408.59 58.06 407.46 C68.55 403.52 79.1 397.37 87.25 389.58 C87.25 388.92 87.25 388.26 87.25 387.58 C87.82 387.36 88.39 387.15 88.98 386.92 C93.92 384 97 378.23 100.25 373.58 C100.8 372.79 101.35 372.01 101.92 371.2 C115.37 350.44 120.08 323.13 115.22 298.94 C112.01 285.8 105.39 273.5 96.25 263.58 C95.46 262.7 94.67 261.82 93.86 260.92 C70.51 236.14 37.05 225.72 5.25 216.58 C8.12 202.48 11.36 188.5 14.75 174.52 C18.75 157.98 18.75 157.98 22.59 141.4 C22.76 140.66 22.93 139.92 23.11 139.16 C23.85 135.85 24.25 133 24.25 129.58 C17.61 128.13 10.97 126.69 4.33 125.25 C2.07 124.76 -0.19 124.27 -2.44 123.78 C-5.69 123.07 -8.93 122.37 -12.18 121.67 C-13.19 121.45 -14.2 121.22 -15.25 120.99 C-16.19 120.79 -17.13 120.59 -18.1 120.39 C-18.92 120.21 -19.75 120.03 -20.61 119.84 C-22.93 119.4 -22.93 119.4 -25.75 120.58 C-26.73 123.54 -27.5 126.38 -28.2 129.4 C-28.41 130.29 -28.63 131.18 -28.85 132.1 C-29.54 134.97 -30.21 137.84 -30.88 140.71 C-31.33 142.62 -31.79 144.53 -32.26 146.44 C-32.7 148.28 -33.13 150.12 -33.57 151.96 C-33.78 152.82 -33.98 153.68 -34.19 154.56 C-35.28 159.22 -36.08 163.84 -36.75 168.58 C-37.39 170.76 -37.39 170.76 -38.11 172.67 C-40.22 178.71 -41.54 184.91 -42.94 191.14 C-43.35 192.94 -43.35 192.94 -43.77 194.78 C-44.43 197.71 -45.09 200.65 -45.75 203.58 C-46.49 203.41 -47.23 203.24 -48 203.06 C-51.39 202.28 -54.79 201.49 -58.19 200.71 C-59.35 200.44 -60.52 200.17 -61.72 199.89 C-62.86 199.62 -64.01 199.36 -65.19 199.09 C-66.3 198.83 -67.42 198.57 -68.58 198.3 C-71.39 197.66 -74.21 197.05 -77.04 196.45 C-80.75 195.58 -80.75 195.58 -81.75 194.58 C-81.42 192.79 -81.01 191.02 -80.57 189.26 C-80.17 187.62 -80.17 187.62 -79.76 185.95 C-79.47 184.8 -79.18 183.64 -78.88 182.46 C-76.75 174.21 -76.75 174.21 -75.24 165.84 C-74.72 162.36 -73.7 159.35 -72.55 156.05 C-71.09 151.53 -70.14 146.9 -69.13 142.27 C-68.7 140.33 -68.27 138.4 -67.84 136.47 C-67.65 135.62 -67.47 134.78 -67.28 133.91 C-66.58 130.81 -65.79 127.74 -65 124.67 C-64.73 123.63 -64.46 122.59 -64.19 121.52 C-63.78 119.95 -63.78 119.95 -63.37 118.36 C-62.64 115.57 -62.64 115.57 -62.75 112.58 C-73.41 109.74 -84.2 107.58 -95 105.39 C-96.83 105.02 -98.65 104.65 -100.47 104.28 C-104.9 103.38 -109.33 102.48 -113.75 101.58 Z M-227.69 588.39 C-235.66 598.48 -235.52 610.29 -234.75 622.58 C-232.66 636.58 -222.4 645.91 -211.77 654.2 C-209.7 655.75 -209.7 655.75 -206.75 656.58 C-205.75 658.4 -205.75 658.4 -204.75 660.58 C-203.28 662.59 -201.74 664.53 -200.19 666.48 C-195.89 672.75 -196.15 679.23 -196.75 686.58 C-197.78 690.8 -199.05 693.11 -202.75 695.58 C-210.28 695.99 -210.28 695.99 -213.75 694.58 C-216.9 688.56 -217.28 681.24 -217.75 674.58 C-224.35 674.58 -230.95 674.58 -237.75 674.58 C-237.42 675.24 -237.09 675.9 -236.75 676.58 C-236.78 678.39 -236.85 680.21 -236.94 682.02 C-237.02 690.35 -234.45 697.71 -229.75 704.58 C-227.77 706.36 -227.77 706.36 -225.5 707.77 C-224.77 708.26 -224.05 708.75 -223.3 709.25 C-215 713.59 -204.75 714.09 -195.73 711.82 C-188.19 708.95 -182.65 704.7 -178.75 697.58 C-174.24 687.15 -173.79 673.07 -177.5 662.33 C-180.25 656.03 -183.78 651.32 -188.75 646.58 C-189.25 646.06 -189.76 645.53 -190.27 644.99 C-193.59 641.55 -197.02 638.55 -200.81 635.64 C-207.31 630.53 -212.34 624.62 -214.75 616.58 C-215.37 610.1 -215.71 605.01 -211.75 599.58 C-208.17 597.79 -204.19 598.11 -200.44 599.33 C-197.66 601.39 -196.87 603.76 -196.37 607.12 C-196.31 608 -196.25 608.87 -196.19 609.77 C-196.2 612.98 -196.2 612.98 -194.75 615.58 C-193.41 615.67 -192.06 615.69 -190.72 615.68 C-189.91 615.67 -189.1 615.67 -188.27 615.67 C-186.99 615.66 -186.99 615.66 -185.69 615.64 C-184.83 615.64 -183.98 615.63 -183.1 615.63 C-180.98 615.62 -178.87 615.6 -176.75 615.58 C-176.75 606.15 -177.69 596.67 -182.75 588.58 C-183.41 588.58 -184.07 588.58 -184.75 588.58 C-185.25 587.1 -185.25 587.1 -185.75 585.58 C-197.43 576.99 -217.69 577.7 -227.69 588.39 Z M-159.75 588.58 C-166.24 596.9 -167.15 607.34 -166.75 617.58 C-166.09 617.58 -165.43 617.58 -164.75 617.58 C-165.41 618.24 -166.07 618.9 -166.75 619.58 C-161.8 619.58 -156.85 619.58 -151.75 619.58 C-150.58 615.49 -149.61 612.03 -148.94 607.96 C-147.96 603.57 -146.55 601.2 -142.75 598.58 C-138.81 597.96 -136.77 597.89 -133.44 600.14 C-128.61 607.12 -129.44 614.5 -130.75 622.58 C-133.44 632.6 -139.73 641.04 -146.06 649.08 C-159.86 667.36 -166.75 687.72 -166.75 710.58 C-148.27 710.58 -129.79 710.58 -110.75 710.58 C-110.75 704.97 -110.75 699.36 -110.75 693.58 C-121.97 693.25 -133.19 692.92 -144.75 692.58 C-146.19 688.26 -144.43 685.29 -142.75 681.27 C-142.4 680.44 -142.06 679.6 -141.7 678.74 C-138.13 670.69 -133.33 663.7 -128.27 656.52 C-116.55 639.87 -109.66 624.35 -111.75 603.58 C-113.27 595.88 -116.76 589.69 -122.75 584.58 C-134.21 577.57 -150.34 579.03 -159.75 588.58 Z M-22.13 587.77 C-31.28 600.06 -31.06 615.57 -31.02 630.3 C-31.02 631.65 -31.02 633.01 -31.02 634.36 C-31.03 637.18 -31.02 639.99 -31.01 642.8 C-31 646.36 -31.01 649.92 -31.02 653.48 C-31.03 656.27 -31.02 659.06 -31.02 661.85 C-31.02 663.79 -31.02 665.73 -31.03 667.66 C-31.02 687.87 -31.02 687.87 -22.15 705.42 C-14.82 712.28 -7.19 713.16 2.55 712.92 C10.37 712.2 16.49 709.49 21.78 703.62 C29.57 692.81 28.45 678.84 28.5 666.14 C28.52 664.91 28.54 663.68 28.56 662.41 C28.6 652.34 28.04 641.58 21.25 633.58 C15.06 628 9.09 628.17 1.17 628.28 C-3.66 628.65 -6.02 629.6 -9.75 632.58 C-9.75 633.24 -9.75 633.9 -9.75 634.58 C-10.41 634.58 -11.07 634.58 -11.75 634.58 C-11.67 630.23 -11.56 625.87 -11.44 621.52 C-11.42 620.29 -11.39 619.06 -11.37 617.79 C-10.96 603.78 -10.96 603.78 -5.75 598.58 C-1.03 598.04 1.12 597.8 5.06 600.52 C7.86 604.43 8.94 607.96 10.25 612.58 C16.19 612.58 22.13 612.58 28.25 612.58 C27.84 602.91 27.12 595.6 21.12 587.83 C12.19 580.84 4.3 579.43 -6.8 580.34 C-12.99 581.1 -17.84 583.22 -22.13 587.77 Z M-97.75 582.58 C-97.73 583.77 -97.71 584.95 -97.68 586.17 C-97.49 601.61 -98.22 616.96 -99.04 632.37 C-99.09 633.24 -99.13 634.11 -99.18 635.01 C-99.27 636.64 -99.35 638.27 -99.45 639.9 C-99.73 645.13 -99.79 650.34 -99.75 655.58 C-94.14 655.58 -88.53 655.58 -82.75 655.58 C-82.19 653.45 -82.19 653.45 -81.63 651.27 C-80.46 647.79 -80 646.77 -77 644.46 C-73.05 643.39 -70.68 643.42 -66.75 644.58 C-63.89 646.84 -62.93 648.6 -62.29 652.18 C-61.92 655.9 -61.73 659.56 -61.8 663.3 C-61.91 665.61 -61.91 665.61 -60.75 667.58 C-61.11 688.15 -61.11 688.15 -65.08 693.3 C-67.03 694.79 -68.26 695.12 -70.69 695.39 C-71.36 695.48 -72.03 695.57 -72.72 695.66 C-75.27 695.56 -76.64 695.02 -78.75 693.58 C-81.95 687.85 -82.3 680.99 -82.75 674.58 C-88.69 674.58 -94.63 674.58 -100.75 674.58 C-100.99 686 -101.06 695.33 -93.75 704.58 C-87.11 711.22 -80.87 712.86 -71.75 712.96 C-63.75 712.87 -57.31 711.8 -51.13 706.23 C-44.47 698.29 -43.6 689.34 -43.55 679.41 C-43.54 678.1 -43.54 678.1 -43.53 676.76 C-43.52 674.91 -43.52 673.06 -43.51 671.22 C-43.5 668.42 -43.47 665.62 -43.44 662.83 C-43.02 645.62 -43.02 645.62 -50.95 630.95 C-56.46 626.75 -63.04 625.93 -69.75 626.58 C-74.55 628.21 -77.88 630.39 -81.75 633.58 C-81.2 629.36 -80.65 625.15 -80.1 620.93 C-79.91 619.49 -79.72 618.06 -79.54 616.62 C-79.27 614.56 -79 612.5 -78.72 610.44 C-78.56 609.19 -78.4 607.95 -78.23 606.68 C-77.75 603.58 -77.75 603.58 -76.75 600.58 C-61.41 600.09 -61.41 600.09 -45.75 599.58 C-45.75 593.97 -45.75 588.36 -45.75 582.58 C-46.41 582.91 -47.07 583.24 -47.75 583.58 C-47.75 583.25 -47.75 582.92 -47.75 582.58 C-48.74 582.58 -49.73 582.58 -50.75 582.58 C-66.42 582.58 -82.08 582.58 -97.75 582.58 Z " fill="#FDAC3A" transform="translate(611.75146484375,38.41943359375)"/>
<path d="M0 0 C3.57 -0 7.14 -0 10.72 -0.01 C81.08 -0.06 81.08 -0.06 104.34 0.39 C105.96 0.43 107.58 0.45 109.2 0.48 C122.8 0.68 136.37 2.52 146.83 12.08 C155.63 21.74 157 32.32 156.96 44.97 C156.96 46.02 156.97 47.06 156.97 48.14 C156.99 51.62 156.98 55.1 156.98 58.58 C156.99 61.09 157 63.59 157 66.1 C157.02 72.19 157.02 78.27 157.03 84.36 C157.03 89.3 157.03 94.25 157.04 99.2 C157.05 113.25 157.06 127.3 157.06 141.36 C157.06 142.11 157.06 142.87 157.06 143.65 C157.06 144.4 157.06 145.16 157.06 145.94 C157.06 158.21 157.08 170.49 157.11 182.76 C157.14 195.38 157.15 208 157.15 220.62 C157.15 227.7 157.15 234.78 157.18 241.85 C157.2 248.51 157.2 255.17 157.18 261.82 C157.18 264.26 157.18 266.7 157.2 269.14 C157.21 272.47 157.2 275.81 157.19 279.15 C157.2 280.11 157.21 281.06 157.22 282.05 C157.1 293.57 152.87 303.05 144.69 311.12 C134.27 319.62 122.76 321.59 109.61 321.5 C108.46 321.51 107.3 321.51 106.11 321.52 C102.27 321.53 98.44 321.52 94.6 321.51 C91.84 321.51 89.07 321.52 86.31 321.53 C79.6 321.54 72.9 321.54 66.19 321.53 C60.73 321.52 55.28 321.52 49.83 321.52 C48.66 321.52 48.66 321.52 47.47 321.52 C45.89 321.53 44.31 321.53 42.73 321.53 C27.93 321.54 13.13 321.53 -1.67 321.51 C-14.36 321.5 -27.04 321.5 -39.73 321.51 C-54.48 321.53 -69.24 321.54 -83.99 321.53 C-85.56 321.53 -87.14 321.52 -88.71 321.52 C-89.49 321.52 -90.26 321.52 -91.06 321.52 C-96.5 321.52 -101.95 321.52 -107.39 321.53 C-114.03 321.54 -120.67 321.54 -127.31 321.52 C-130.69 321.51 -134.07 321.51 -137.46 321.52 C-141.13 321.53 -144.81 321.52 -148.48 321.5 C-149.54 321.51 -150.6 321.52 -151.69 321.52 C-164.22 321.42 -174.87 317.54 -184.06 308.93 C-192.1 300.52 -194.47 292.05 -194.44 280.65 C-194.44 279.8 -194.44 278.95 -194.44 278.08 C-194.44 275.22 -194.44 272.37 -194.44 269.52 C-194.44 267.47 -194.44 265.42 -194.44 263.37 C-194.45 257.8 -194.45 252.22 -194.44 246.65 C-194.44 240.77 -194.44 234.9 -194.44 229.03 C-194.45 219.12 -194.44 209.21 -194.44 199.3 C-194.43 187.97 -194.43 176.63 -194.44 165.29 C-194.44 155.5 -194.45 145.7 -194.44 135.9 C-194.44 130.08 -194.44 124.26 -194.44 118.44 C-194.45 103.67 -194.41 88.89 -194.31 74.12 C-194.3 73.08 -194.3 72.04 -194.29 70.97 C-194.25 64.79 -194.19 58.62 -194.09 52.44 C-194.06 50.54 -194.04 48.65 -194.03 46.75 C-193.89 28.25 -193.89 28.25 -189.31 20.12 C-188.57 18.79 -188.57 18.79 -187.81 17.42 C-180.98 8.37 -171.22 3.53 -160.31 1.12 C-155.8 0.67 -151.32 0.63 -146.8 0.61 C-145.39 0.59 -143.99 0.57 -142.58 0.56 C-138.63 0.51 -134.68 0.48 -130.72 0.45 C-128.16 0.43 -125.6 0.41 -123.04 0.39 C-82.03 -0.01 -41.01 0.02 0 0 Z M-170.81 24.43 C-171.62 25.17 -172.44 25.91 -173.28 26.67 C-177.9 32.25 -177.6 38.44 -177.57 45.33 C-177.57 46.35 -177.58 47.38 -177.58 48.43 C-177.59 51.87 -177.59 55.3 -177.58 58.73 C-177.59 61.2 -177.59 63.66 -177.6 66.12 C-177.61 72.11 -177.61 78.11 -177.61 84.1 C-177.61 88.97 -177.61 93.84 -177.61 98.72 C-177.62 99.41 -177.62 100.1 -177.62 100.82 C-177.62 102.23 -177.62 103.64 -177.62 105.05 C-177.63 118.26 -177.63 131.47 -177.62 144.69 C-177.62 156.77 -177.63 168.86 -177.65 180.94 C-177.67 193.35 -177.68 205.77 -177.67 218.18 C-177.67 225.15 -177.67 232.11 -177.69 239.08 C-177.7 245.63 -177.7 252.18 -177.68 258.73 C-177.68 261.14 -177.68 263.54 -177.69 265.95 C-177.7 269.23 -177.7 272.51 -177.68 275.79 C-177.69 276.74 -177.7 277.7 -177.7 278.68 C-177.64 287.15 -175.46 292.97 -169.31 299.12 C-163.9 302.5 -158.86 304.24 -152.47 304.26 C-151.49 304.26 -150.52 304.27 -149.51 304.27 C-148.44 304.27 -147.37 304.28 -146.26 304.28 C-144.55 304.28 -144.55 304.28 -142.81 304.29 C-138.98 304.3 -135.14 304.31 -131.31 304.31 C-128.57 304.32 -125.82 304.33 -123.08 304.34 C-114.84 304.36 -106.6 304.38 -98.36 304.39 C-96.03 304.4 -93.7 304.4 -91.37 304.4 C-76.91 304.43 -62.44 304.45 -47.98 304.46 C-44.63 304.47 -41.28 304.47 -37.93 304.47 C-36.68 304.47 -36.68 304.47 -35.4 304.47 C-21.92 304.49 -8.44 304.52 5.04 304.56 C18.89 304.6 32.74 304.63 46.58 304.63 C54.36 304.64 62.13 304.65 69.9 304.68 C76.52 304.71 83.14 304.72 89.76 304.71 C93.14 304.7 96.51 304.71 99.89 304.73 C103.55 304.75 107.22 304.75 110.89 304.73 C111.94 304.74 113 304.76 114.09 304.77 C121.21 304.7 126.79 303.23 132.69 299.12 C137.06 294.46 139.81 290.34 139.83 283.81 C139.83 282.48 139.83 282.48 139.84 281.12 C139.84 280.15 139.84 279.18 139.84 278.17 C139.84 276.62 139.84 276.62 139.85 275.04 C139.86 271.56 139.87 268.07 139.87 264.59 C139.88 262.1 139.88 259.61 139.89 257.12 C139.91 249.64 139.92 242.15 139.93 234.67 C139.93 231.14 139.94 227.62 139.94 224.09 C139.96 212.38 139.97 200.66 139.98 188.94 C139.98 185.9 139.99 182.86 139.99 179.81 C139.99 179.06 139.99 178.3 139.99 177.52 C140 165.28 140.02 153.04 140.05 140.8 C140.09 128.23 140.11 115.66 140.11 103.09 C140.11 96.03 140.12 88.97 140.15 81.92 C140.17 75.28 140.17 68.64 140.16 62 C140.16 59.56 140.17 57.13 140.18 54.69 C140.2 51.36 140.19 48.03 140.18 44.71 C140.19 43.74 140.2 42.78 140.21 41.79 C140.15 34.78 138.51 29.61 134.09 24.13 C126.26 17.58 118.18 16.68 108.24 16.74 C106.55 16.73 106.55 16.73 104.83 16.73 C101.08 16.71 97.33 16.72 93.58 16.73 C90.89 16.73 88.2 16.72 85.5 16.72 C78.95 16.7 72.4 16.71 65.85 16.72 C60.53 16.72 55.2 16.72 49.88 16.72 C49.12 16.72 48.36 16.72 47.58 16.72 C46.03 16.72 44.49 16.72 42.95 16.72 C28.5 16.71 14.05 16.72 -0.4 16.73 C-12.78 16.75 -25.17 16.74 -37.56 16.73 C-51.95 16.71 -66.35 16.71 -80.75 16.72 C-82.29 16.72 -83.82 16.72 -85.36 16.72 C-86.49 16.72 -86.49 16.72 -87.65 16.72 C-92.97 16.72 -98.28 16.72 -103.6 16.71 C-110.08 16.7 -116.56 16.71 -123.05 16.72 C-126.35 16.73 -129.65 16.73 -132.96 16.72 C-136.55 16.72 -140.14 16.73 -143.73 16.74 C-144.76 16.73 -145.8 16.73 -146.86 16.72 C-155.85 16.79 -164.06 18.09 -170.81 24.43 Z " fill="#FDC448" transform="translate(525.3081283569336,533.8779563903809)"/>
<path d="M0 0 C77.84 14.57 77.84 14.57 102 34 C102.73 34.55 103.45 35.1 104.2 35.67 C113.68 43.27 119.13 53.91 120.81 65.81 C121.71 79.03 116.99 92.12 108.41 102.22 C95.53 115.66 78.44 123.47 59.73 124.07 C54.49 124.16 49.25 124.1 44 124 C43.67 124.66 43.34 125.32 43 126 C43 125.01 43 124.02 43 123 C42.26 122.98 41.52 122.96 40.76 122.94 C28.84 122.36 17.36 119.92 5.69 117.56 C3.61 117.15 1.54 116.74 -0.54 116.33 C-9.05 114.63 -17.54 112.91 -26 111 C-24.74 102.81 -23.11 94.77 -21.17 86.71 C-20.9 85.57 -20.63 84.43 -20.35 83.25 C-19.49 79.62 -18.62 76 -17.75 72.38 C-16.9 68.82 -16.05 65.26 -15.2 61.7 C-14.64 59.33 -14.08 56.97 -13.51 54.61 C-11.3 45.33 -9.15 36.04 -7.04 26.73 C-4.99 17.74 -2.59 8.86 0 0 Z " fill="#FBAA38" transform="translate(506,290)"/>
<path d="M0 0 C3.53 1.76 5.52 2.92 7.15 6.56 C8.22 10.89 8.34 14.94 8.37 19.38 C8.38 20.71 8.38 20.71 8.4 22.07 C8.41 23.95 8.42 25.82 8.43 27.7 C8.44 30.56 8.49 33.42 8.54 36.28 C8.55 38.1 8.55 39.93 8.56 41.75 C8.58 42.61 8.6 43.46 8.62 44.34 C8.58 48.74 8.43 50.46 5.61 54.03 C1.81 56.9 -1.33 57.19 -6 57 C-9.06 56.06 -9.06 56.06 -11 55 C-11 54.34 -11 53.68 -11 53 C-11.66 53 -12.32 53 -13 53 C-14.16 50.69 -14.15 49.3 -14.19 46.72 C-14.21 45.84 -14.22 44.95 -14.24 44.04 C-14.29 39.99 -14.33 35.95 -14.35 31.9 C-14.37 29.76 -14.39 27.63 -14.43 25.49 C-14.49 22.42 -14.51 19.34 -14.52 16.26 C-14.55 15.31 -14.57 14.36 -14.59 13.38 C-14.58 8.77 -14.52 6.68 -11.65 2.92 C-7.74 0.09 -4.76 -0.47 0 0 Z " fill="#FDC348" transform="translate(416,470)"/>
<path d="M0 0 C3.92 2.55 4.77 5.61 6 10 C6.38 14.7 6.37 19.4 6.37 24.11 C6.37 26.36 6.41 28.61 6.45 30.86 C6.51 38.37 6.56 44.69 2 51 C-1.48 53.07 -3.95 53.57 -8 53 C-12.79 49.87 -14.59 47.46 -16 42 C-16.26 38.58 -16.26 38.58 -16.27 34.88 C-16.27 34.22 -16.27 33.55 -16.27 32.87 C-16.27 31.48 -16.27 30.08 -16.26 28.69 C-16.25 26.57 -16.26 24.46 -16.27 22.34 C-16.27 20.98 -16.27 19.62 -16.27 18.25 C-16.26 17.03 -16.26 15.81 -16.26 14.55 C-15.91 9.8 -15.01 5.64 -12.5 1.56 C-8.52 -0.92 -4.55 -0.74 0 0 Z " fill="#FCAD39" transform="translate(616,682)"/>
<path d="M0 0 C5.61 0 11.22 0 17 0 C17.1 6.16 17.17 12.31 17.22 18.47 C17.24 20.56 17.27 22.66 17.3 24.75 C17.35 27.76 17.37 30.78 17.39 33.79 C17.41 34.72 17.43 35.65 17.45 36.61 C17.46 42.34 16.95 45.72 13 50 C7.75 50.92 7.75 50.92 5 50 C2.19 47.95 0.27 46.33 -0.44 42.81 C-0.58 40.08 -0.56 37.4 -0.49 34.67 C-0.48 33.68 -0.47 32.68 -0.47 31.66 C-0.44 28.5 -0.38 25.35 -0.31 22.19 C-0.29 20.04 -0.26 17.9 -0.24 15.75 C-0.19 10.5 -0.1 5.25 0 0 Z " fill="#FDC449" transform="translate(466,867)"/>
<path d="M0 0 C6.62 -0.07 13.24 -0.13 19.86 -0.16 C22.11 -0.18 24.37 -0.2 26.62 -0.23 C29.85 -0.26 33.09 -0.28 36.33 -0.29 C37.84 -0.32 37.84 -0.32 39.38 -0.34 C40.32 -0.34 41.26 -0.34 42.23 -0.34 C43.06 -0.35 43.88 -0.35 44.73 -0.36 C47.56 0.09 48.93 1.06 51 3 C51.57 5.38 51.57 5.38 51.56 8 C51.58 8.87 51.61 9.73 51.63 10.62 C51 13 51 13 49.12 14.63 C44.56 16.63 40.37 16.37 35.45 16.29 C34.44 16.29 33.42 16.28 32.38 16.28 C29.15 16.26 25.92 16.23 22.69 16.19 C20.49 16.17 18.3 16.16 16.11 16.15 C10.74 16.11 5.37 16.06 0 16 C0 10.72 0 5.44 0 0 Z " fill="#FCC449" transform="translate(695,779)"/>
<path d="M0 0 C0.91 -0.02 1.82 -0.03 2.75 -0.05 C6.91 -0.09 11.07 -0.13 15.24 -0.16 C17.43 -0.17 19.63 -0.2 21.83 -0.24 C24.99 -0.29 28.15 -0.32 31.31 -0.33 C32.29 -0.35 33.27 -0.38 34.29 -0.4 C41.08 -0.38 41.08 -0.38 44.35 2.5 C46.14 5.99 46.23 8.32 45.73 12.19 C44.18 14.3 43.05 15.03 40.73 16.19 C39.28 16.29 37.83 16.32 36.39 16.32 C35.49 16.33 34.59 16.33 33.67 16.33 C32.21 16.33 32.21 16.33 30.72 16.33 C29.73 16.33 28.74 16.33 27.71 16.33 C25.61 16.33 23.51 16.33 21.41 16.32 C18.17 16.32 14.94 16.32 11.71 16.33 C9.68 16.33 7.64 16.33 5.6 16.33 C4.63 16.33 3.65 16.33 2.65 16.33 C1.76 16.33 0.86 16.33 -0.06 16.32 C-0.85 16.32 -1.64 16.32 -2.46 16.32 C-4.27 16.19 -4.27 16.19 -5.27 15.19 C-5.37 12.86 -5.4 10.53 -5.4 8.19 C-5.4 6.91 -5.4 5.64 -5.41 4.32 C-5.21 -0.33 -4.24 0.07 0 0 Z " fill="#FDC449" transform="translate(700.272705078125,670.80712890625)"/>
<path d="M0 0 C5.28 0 10.56 0 16 0 C16.1 6.48 16.17 12.96 16.22 19.43 C16.24 21.64 16.27 23.84 16.3 26.04 C16.35 29.21 16.37 32.38 16.39 35.55 C16.41 36.53 16.43 37.52 16.45 38.53 C16.46 45.37 16.46 45.37 14.12 48.62 C11.68 50.21 10.33 50.54 7.44 50.5 C6.67 50.51 5.91 50.52 5.12 50.53 C2.19 49.8 1.56 48.54 0 46 C-0.36 43.77 -0.36 43.77 -0.34 41.32 C-0.34 40.4 -0.34 39.48 -0.34 38.53 C-0.32 37.55 -0.31 36.56 -0.29 35.55 C-0.29 34.53 -0.28 33.52 -0.28 32.47 C-0.26 29.23 -0.23 25.99 -0.19 22.75 C-0.17 20.55 -0.16 18.35 -0.15 16.16 C-0.11 10.77 -0.06 5.39 0 0 Z " fill="#FDC549" transform="translate(590,867)"/>
<path d="M0 0 C5.28 0 10.56 0 16 0 C16.1 6.64 16.17 13.28 16.22 19.92 C16.24 22.17 16.27 24.43 16.3 26.69 C16.35 29.94 16.37 33.18 16.39 36.43 C16.41 37.44 16.43 38.45 16.45 39.49 C16.45 40.43 16.45 41.38 16.45 42.34 C16.46 43.17 16.47 44 16.48 44.85 C16 47 16 47 14.19 48.76 C10.96 50.59 8.64 50.45 5 50 C2.64 48.13 1.34 46.68 0 44 C-0.09 42.58 -0.12 41.16 -0.11 39.73 C-0.11 38.85 -0.11 37.97 -0.11 37.06 C-0.11 36.11 -0.1 35.16 -0.1 34.18 C-0.1 33.21 -0.09 32.23 -0.09 31.23 C-0.09 28.11 -0.08 24.99 -0.06 21.88 C-0.06 19.76 -0.05 17.65 -0.05 15.54 C-0.04 10.36 -0.02 5.18 0 0 Z " fill="#FDC449" transform="translate(528,867)"/>
<path d="M0 0 C5.28 0 10.56 0 16 0 C16.12 6.32 16.21 12.63 16.27 18.95 C16.3 21.1 16.33 23.25 16.38 25.4 C16.44 28.49 16.47 31.58 16.49 34.67 C16.51 35.63 16.54 36.58 16.57 37.57 C16.57 42.21 16.52 44.31 13.66 48.11 C11 50 11 50 8 50.62 C3.82 49.75 2.57 48.41 0 45 C-0.69 41.55 -0.58 38.18 -0.49 34.67 C-0.48 33.68 -0.47 32.68 -0.47 31.66 C-0.44 28.5 -0.38 25.35 -0.31 22.19 C-0.29 20.04 -0.26 17.9 -0.24 15.75 C-0.19 10.5 -0.1 5.25 0 0 Z " fill="#FDC54A" transform="translate(406,867)"/>
<path d="M0 0 C0.99 0 1.98 0.01 3 0.01 C5.09 0.02 7.18 0.04 9.27 0.07 C12.49 0.11 15.7 0.13 18.91 0.14 C20.94 0.16 22.97 0.17 25 0.19 C25.97 0.19 26.93 0.2 27.93 0.21 C28.82 0.22 29.71 0.24 30.62 0.25 C31.8 0.26 31.8 0.26 33 0.28 C34.8 0.43 34.8 0.43 35.8 1.43 C35.9 3.76 35.93 6.09 35.93 8.43 C35.93 10.34 35.93 10.34 35.93 12.3 C35.8 15.43 35.8 15.43 34.8 16.43 C33.44 16.53 32.08 16.57 30.71 16.59 C29.41 16.6 29.41 16.6 28.08 16.62 C27.14 16.62 26.19 16.62 25.22 16.63 C24.25 16.63 23.29 16.64 22.29 16.65 C20.24 16.66 18.19 16.66 16.15 16.67 C13.01 16.68 9.88 16.71 6.74 16.74 C4.76 16.74 2.77 16.75 0.78 16.75 C-0.16 16.77 -1.1 16.78 -2.06 16.79 C-8.56 16.77 -8.56 16.77 -11.78 15.04 C-13.57 13.01 -13.91 11.67 -14.2 8.99 C-14.35 7.85 -14.35 7.85 -14.51 6.68 C-14.2 4.43 -14.2 4.43 -12.82 2.31 C-8.77 -0.61 -4.87 -0.09 0 0 Z " fill="#FDC549" transform="translate(281.19921875,670.57421875)"/>
<path d="M0 0 C0.99 0.01 1.99 0.01 3.01 0.02 C6.18 0.04 9.35 0.09 12.52 0.14 C14.67 0.16 16.82 0.18 18.96 0.2 C24.23 0.24 29.5 0.31 34.77 0.39 C34.77 5.67 34.77 10.95 34.77 16.39 C28.59 16.49 22.42 16.56 16.24 16.61 C14.14 16.63 12.04 16.66 9.94 16.69 C6.92 16.74 3.9 16.76 0.88 16.78 C-0.53 16.81 -0.53 16.81 -1.96 16.84 C-6.26 16.85 -8.59 16.78 -12.33 14.49 C-14.38 12.23 -14.9 11.4 -14.8 8.39 C-14.8 7.73 -14.8 7.07 -14.8 6.39 C-12.71 -1 -6.33 -0.14 0 0 Z " fill="#FCC549" transform="translate(281.234375,778.609375)"/>
<path d="M0 0 C6.78 -0.1 13.56 -0.17 20.34 -0.22 C22.65 -0.24 24.96 -0.27 27.27 -0.3 C30.58 -0.35 33.89 -0.37 37.21 -0.39 C38.24 -0.41 39.28 -0.43 40.34 -0.45 C41.78 -0.45 41.78 -0.45 43.25 -0.45 C44.1 -0.46 44.95 -0.47 45.82 -0.48 C48 0 48 0 49.77 1.81 C51.58 5.04 51.45 7.37 51 11 C49.64 13.19 49.64 13.19 47 15 C43.44 15.56 39.92 15.46 36.33 15.39 C35.29 15.38 34.25 15.38 33.18 15.37 C29.87 15.35 26.56 15.3 23.25 15.25 C21 15.23 18.76 15.21 16.51 15.2 C11.01 15.15 5.5 15.08 0 15 C0 10.05 0 5.1 0 0 Z " fill="#FDC549" transform="translate(695,725)"/>
<path d="M0 0 C0.87 0 1.73 0 2.62 0 C5.48 0.53 6.22 1.18 8 3.44 C8.36 5.47 8.36 5.47 8.34 7.82 C8.34 8.7 8.34 9.58 8.34 10.49 C8.32 11.43 8.31 12.38 8.29 13.36 C8.29 14.33 8.28 15.3 8.28 16.3 C8.26 19.41 8.23 22.52 8.19 25.62 C8.17 27.73 8.16 29.84 8.15 31.94 C8.11 37.11 8.06 42.27 8 47.44 C2.72 47.44 -2.56 47.44 -8 47.44 C-8.07 41.39 -8.13 35.34 -8.16 29.29 C-8.18 27.23 -8.2 25.17 -8.23 23.11 C-8.26 20.15 -8.28 17.19 -8.29 14.23 C-8.31 13.31 -8.32 12.39 -8.34 11.45 C-8.34 5.08 -8.34 5.08 -6.63 1.86 C-4.39 -0.1 -2.94 -0.07 0 0 Z " fill="#FDC549" transform="translate(474,473.5625)"/>
<path d="M0 0 C6.32 -0.13 12.63 -0.21 18.95 -0.27 C21.1 -0.3 23.25 -0.33 25.4 -0.38 C28.49 -0.44 31.58 -0.47 34.67 -0.49 C35.63 -0.51 36.58 -0.54 37.57 -0.57 C42.21 -0.57 44.31 -0.52 48.11 2.34 C50 5 50 5 50.56 8.06 C49.84 11.85 49.16 12.77 46 15 C42.53 15.57 39.09 15.49 35.58 15.43 C34.57 15.42 33.56 15.42 32.51 15.42 C30.37 15.41 28.24 15.39 26.1 15.36 C22.81 15.31 19.53 15.3 16.24 15.28 C14.17 15.27 12.09 15.25 10.02 15.24 C9.03 15.23 8.04 15.22 7.02 15.22 C6.12 15.2 5.21 15.19 4.27 15.18 C3.47 15.17 2.67 15.16 1.84 15.15 C0 15 0 15 -1 14 C-0.91 11.64 -0.75 9.29 -0.56 6.94 C-0.46 5.65 -0.36 4.36 -0.25 3.03 C-0.17 2.03 -0.09 1.03 0 0 Z " fill="#FDC54A" transform="translate(696,617)"/>
<path d="M0 0 C2.75 1.8 4.53 3.05 6 6 C6.1 8.98 6.14 11.93 6.13 14.91 C6.13 16.23 6.13 16.23 6.14 17.58 C6.14 19.45 6.13 21.32 6.13 23.19 C6.13 26.05 6.13 28.92 6.14 31.79 C6.14 33.6 6.13 35.41 6.13 37.22 C6.13 38.09 6.14 38.95 6.14 39.84 C6.11 45.89 6.11 45.89 5 47 C2.47 47.07 -0.03 47.09 -2.56 47.06 C-3.63 47.06 -3.63 47.06 -4.72 47.05 C-6.48 47.04 -8.24 47.02 -10 47 C-10.07 40.79 -10.13 34.58 -10.16 28.37 C-10.18 26.25 -10.2 24.14 -10.23 22.03 C-10.26 18.99 -10.28 15.95 -10.29 12.92 C-10.31 11.97 -10.32 11.02 -10.34 10.05 C-10.34 9.17 -10.34 8.29 -10.34 7.38 C-10.35 6.6 -10.35 5.83 -10.36 5.03 C-9.35 -0.66 -4.95 -0.6 0 0 Z " fill="#FDC449" transform="translate(539,474)"/>
<path d="M0 0 C0.92 0 1.84 0 2.79 0 C3.78 0.02 4.77 0.03 5.79 0.05 C6.81 0.05 7.83 0.06 8.87 0.06 C12.12 0.08 15.37 0.11 18.62 0.15 C20.83 0.17 23.03 0.18 25.23 0.19 C30.63 0.23 36.04 0.28 41.44 0.34 C41.44 5.29 41.44 10.24 41.44 15.34 C35.1 15.44 28.77 15.51 22.43 15.56 C20.28 15.58 18.12 15.61 15.96 15.64 C12.87 15.69 9.77 15.71 6.67 15.73 C5.71 15.75 4.74 15.77 3.75 15.79 C-2.94 15.8 -2.94 15.8 -6.17 13.44 C-8.54 9.87 -8.03 7.57 -7.56 3.34 C-5.37 0.29 -3.67 -0.03 0 0 Z " fill="#FDC64A" transform="translate(274.563232421875,724.659423828125)"/>
<path d="M0 0 C0.99 0.01 1.99 0.01 3.01 0.02 C6.18 0.04 9.35 0.09 12.52 0.14 C14.67 0.16 16.82 0.18 18.96 0.2 C24.23 0.24 29.5 0.31 34.77 0.39 C34.77 5.34 34.77 10.29 34.77 15.39 C28.43 15.49 22.1 15.56 15.76 15.61 C13.6 15.63 11.45 15.66 9.29 15.69 C6.2 15.74 3.1 15.76 0 15.78 C-0.96 15.8 -1.93 15.82 -2.92 15.84 C-9.58 15.85 -9.58 15.85 -12.84 13.58 C-14.9 10.35 -14.77 8.14 -14.23 4.39 C-10.8 -1.03 -5.76 -0.12 0 0 Z " fill="#FDC54A" transform="translate(281.234375,616.609375)"/>
<path d="M0 0 C1.24 -0.04 2.48 -0.08 3.75 -0.12 C4.79 -0.16 4.79 -0.16 5.86 -0.2 C8.31 0.03 9.85 0.86 12 2 C12.03 8.23 12.04 14.46 12.05 20.69 C12.06 22.81 12.07 24.93 12.08 27.05 C12.09 30.09 12.09 33.14 12.1 36.18 C12.1 37.13 12.11 38.08 12.11 39.06 C12.11 39.95 12.11 40.83 12.11 41.73 C12.12 42.51 12.12 43.29 12.12 44.09 C12 46 12 46 11 48 C9.56 48.03 8.13 48.05 6.69 48.06 C5.89 48.07 5.09 48.09 4.26 48.1 C2 48 2 48 -1 47 C-2.64 43.72 -2.16 40.09 -2.17 36.48 C-2.17 35.21 -2.17 35.21 -2.18 33.91 C-2.18 32.11 -2.19 30.32 -2.19 28.52 C-2.19 25.77 -2.21 23.03 -2.22 20.29 C-2.23 18.54 -2.23 16.8 -2.23 15.05 C-2.24 14.23 -2.24 13.42 -2.25 12.57 C-2.23 7.99 -1.75 4.32 0 0 Z " fill="#FDC54A" transform="translate(592,474)"/>
<path d="M0 0 C3.53 1.76 5.52 2.92 7.15 6.56 C8.22 10.89 8.34 14.94 8.37 19.38 C8.38 20.71 8.38 20.71 8.4 22.07 C8.41 23.95 8.42 25.82 8.43 27.7 C8.44 30.56 8.49 33.42 8.54 36.28 C8.55 38.1 8.55 39.93 8.56 41.75 C8.58 42.61 8.6 43.46 8.62 44.34 C8.58 48.74 8.43 50.46 5.61 54.03 C1.81 56.9 -1.33 57.19 -6 57 C-9.06 56.06 -9.06 56.06 -11 55 C-11 54.34 -11 53.68 -11 53 C-11.66 53 -12.32 53 -13 53 C-14.16 50.69 -14.15 49.3 -14.19 46.72 C-14.21 45.84 -14.22 44.95 -14.24 44.04 C-14.29 39.99 -14.33 35.95 -14.35 31.9 C-14.37 29.76 -14.39 27.63 -14.43 25.49 C-14.49 22.42 -14.51 19.34 -14.52 16.26 C-14.55 15.31 -14.57 14.36 -14.59 13.38 C-14.58 8.77 -14.52 6.68 -11.65 2.92 C-7.74 0.09 -4.76 -0.47 0 0 Z M-9.2 5.42 C-11.93 9.33 -11.5 12.92 -11.39 17.58 C-11.38 18.5 -11.38 19.43 -11.37 20.39 C-11.35 23.34 -11.3 26.3 -11.25 29.25 C-11.23 31.26 -11.21 33.26 -11.2 35.27 C-11.15 40.18 -11.08 45.09 -11 50 C-10.34 50 -9.68 50 -9 50 C-8.63 50.5 -8.26 50.99 -7.88 51.5 C-4.83 53.94 -1.81 53.19 2 53 C3.17 50.67 3.14 49.27 3.16 46.67 C3.17 45.78 3.18 44.89 3.19 43.96 C3.2 42.51 3.2 42.51 3.2 41.03 C3.21 40.04 3.21 39.05 3.22 38.03 C3.23 35.93 3.24 33.83 3.24 31.73 C3.25 28.51 3.28 25.29 3.31 22.07 C3.32 20.04 3.32 18 3.33 15.97 C3.35 14.52 3.35 14.52 3.37 13.04 C3.36 12.14 3.36 11.25 3.36 10.33 C3.36 9.54 3.36 8.75 3.37 7.94 C3.25 7.3 3.12 6.66 3 6 C-1.08 3.28 -4.92 2.65 -9.2 5.42 Z " fill="#FEAE3B" transform="translate(416,470)"/>
<path d="M0 0 C1.44 0.11 2.88 0.24 4.31 0.38 C5.51 0.48 5.51 0.48 6.74 0.59 C9 1 9 1 12 3 C12 3.66 12 4.32 12 5 C10.56 4.55 9.12 4.09 7.69 3.62 C6.89 3.37 6.09 3.11 5.26 2.85 C3 2 3 2 0 0 Z " fill="#F9A633" transform="translate(331,934)"/>
<path d="M0 0 C2.64 0 5.28 0 8 0 C8 0.66 8 1.32 8 2 C5.39 2.93 4.36 3.15 1.75 2.06 C1.17 1.71 0.6 1.36 0 1 C0 0.67 0 0.34 0 0 Z " fill="#FDA336" transform="translate(408,523)"/>
<path d="M0 0 C2.97 0 5.94 0 9 0 C9 0.33 9 0.66 9 1 C6.03 1 3.06 1 0 1 C0 0.67 0 0.34 0 0 Z " fill="#FDB03B" transform="translate(536,622)"/>
<path d="M0 0 C0.66 0.66 1.32 1.32 2 2 C0.68 2.33 -0.64 2.66 -2 3 C-1.34 2.67 -0.68 2.34 0 2 C0 1.34 0 0.68 0 0 Z " fill="#FDB03A" transform="translate(498,745)"/>
<path d="M0 0 C1.98 0 3.96 0 6 0 C6 0.33 6 0.66 6 1 C4.02 1 2.04 1 0 1 C0 0.67 0 0.34 0 0 Z " fill="#FEB13C" transform="translate(523,622)"/>
<path d="M0 0 C0.33 0 0.66 0 1 0 C1 1.65 1 3.3 1 5 C0.67 5 0.34 5 0 5 C0 3.35 0 1.7 0 0 Z " fill="#FDB13D" transform="translate(528,723)"/>
<path d="M0 0 C4 1 4 1 4 1 Z " fill="#FDB43D" transform="translate(456,656)"/>
<path d="M0 0 C4 1 4 1 4 1 Z " fill="#FFB43C" transform="translate(420,652)"/>
<path d="M0 0 C4 1 4 1 4 1 Z " fill="#FDB13D" transform="translate(554,622)"/>
<path d="M0 0 C4 1 4 1 4 1 Z " fill="#FEB33F" transform="translate(408,620)"/>
<path d="M0 0 C0.66 0.66 1.32 1.32 2 2 C1.01 1.67 0.02 1.34 -1 1 C-0.67 0.67 -0.34 0.34 0 0 Z " fill="#FEBF49" transform="translate(337,543)"/>
<path d="M0 0 C0.99 0.5 0.99 0.5 2 1 C1.01 1.5 1.01 1.5 0 2 C0 1.34 0 0.68 0 0 Z " fill="#FDB03B" transform="translate(616,748)"/>
<path d="" fill="#FFB23D" transform="translate(0,0)"/>
<path d="" fill="#FEB33C" transform="translate(0,0)"/>
<path d="M0 0 C0.99 0.5 0.99 0.5 2 1 C1.01 1.5 1.01 1.5 0 2 C0 1.34 0 0.68 0 0 Z " fill="#FEB23C" transform="translate(469,712)"/>
<path d="" fill="#FEB03A" transform="translate(0,0)"/>
<path d="" fill="#FCB23C" transform="translate(0,0)"/>
<path d="M0 0 C3 1 3 1 3 1 Z " fill="#FFB23B" transform="translate(549,636)"/>
<path d="M0 0 C3 1 3 1 3 1 Z " fill="#FFBC48" transform="translate(356,532)"/>
<path d="" fill="#FFB741" transform="translate(0,0)"/>
<path d="" fill="#FEBA44" transform="translate(0,0)"/>
<path d="" fill="#FEB33F" transform="translate(0,0)"/>
<path d="" fill="#FCBF49" transform="translate(0,0)"/>
<path d="M0 0 C0.99 0.5 0.99 0.5 2 1 C1.01 1.5 1.01 1.5 0 2 C0 1.34 0 0.68 0 0 Z " fill="#FDB43D" transform="translate(544,414)"/>
<path d="M0 0 C3 1 3 1 3 1 Z " fill="#FEB13E" transform="translate(536,413)"/>
<path d="" fill="#FDB741" transform="translate(0,0)"/>
<path d="M0 0 C3 1 3 1 3 1 Z " fill="#FFB640" transform="translate(466,222)"/>
<path d="M0 0 C3 1 3 1 3 1 Z " fill="#FAAF3C" transform="translate(304,72)"/>
<path d="M0 0 C2 1 2 1 2 1 Z " fill="#F7A636" transform="translate(574,967)"/>
<path d="M0 0 C2 1 2 1 2 1 Z " fill="#F9A838" transform="translate(440,966)"/>
<path d="M0 0 C2 1 2 1 2 1 Z " fill="#F6A638" transform="translate(404,959)"/>
<path d="M0 0 C2 1 2 1 2 1 Z " fill="#F1A133" transform="translate(275,909)"/>
<path d="M0 0 C2 1 2 1 2 1 Z " fill="#FDB13A" transform="translate(612,749)"/>
<path d="M0 0 C2 1 2 1 2 1 Z " fill="#FEB13B" transform="translate(409,749)"/>
<path d="M0 0 C2 1 2 1 2 1 Z " fill="#FEB13C" transform="translate(416,747)"/>
<path d="" fill="#FCAF3C" transform="translate(0,0)"/>
<path d="M0 0 C2 1 2 1 2 1 Z " fill="#FEB13A" transform="translate(471,733)"/>
<path d="" fill="#FEB33C" transform="translate(0,0)"/>
<path d="" fill="#FDB23A" transform="translate(0,0)"/>
<path d="M0 0 C2 1 2 1 2 1 Z " fill="#FEB13A" transform="translate(519,714)"/>
<path d="" fill="#FEB13B" transform="translate(0,0)"/>
<path d="" fill="#FDB03A" transform="translate(0,0)"/>
<path d="M0 0 C2 1 2 1 2 1 Z " fill="#FDB13B" transform="translate(515,692)"/>
<path d="M0 0 C2 1 2 1 2 1 Z " fill="#FDAE3C" transform="translate(603,671)"/>
<path d="" fill="#FAAA3A" transform="translate(0,0)"/>
<path d="" fill="#F7A838" transform="translate(0,0)"/>
<path d="" fill="#FEB23E" transform="translate(0,0)"/>
<path d="" fill="#FFB23C" transform="translate(0,0)"/>
<path d="M0 0 C2 1 2 1 2 1 Z " fill="#FDB23A" transform="translate(558,636)"/>
<path d="M0 0 C2 1 2 1 2 1 Z " fill="#FEB03C" transform="translate(520,622)"/>
<path d="M0 0 C2 1 2 1 2 1 Z " fill="#FFB13A" transform="translate(517,622)"/>
<path d="M0 0 C2 1 2 1 2 1 Z " fill="#FFB23E" transform="translate(419,622)"/>
<path d="M0 0 C2 1 2 1 2 1 Z " fill="#FDB33C" transform="translate(411,622)"/>
<path d="M0 0 C2 1 2 1 2 1 Z " fill="#FFB13E" transform="translate(465,621)"/>
<path d="M0 0 C2 1 2 1 2 1 Z " fill="#FFB742" transform="translate(321,608)"/>
<path d="" fill="#FAAF3A" transform="translate(0,0)"/>
<path d="" fill="#FDB13D" transform="translate(0,0)"/>
<path d="" fill="#FEB340" transform="translate(0,0)"/>
<path d="" fill="#FFBC44" transform="translate(0,0)"/>
<path d="" fill="#FEB33F" transform="translate(0,0)"/>
<path d="" fill="#FDC049" transform="translate(0,0)"/>
<path d="" fill="#FFB33D" transform="translate(0,0)"/>
<path d="" fill="#FEBD48" transform="translate(0,0)"/>
<path d="" fill="#FFB640" transform="translate(0,0)"/>
<path d="M0 0 C2 1 2 1 2 1 Z " fill="#FEB943" transform="translate(606,472)"/>
<path d="M0 0 C2 1 2 1 2 1 Z " fill="#FCB340" transform="translate(556,472)"/>
<path d="" fill="#FFB43F" transform="translate(0,0)"/>
<path d="M0 0 C2 1 2 1 2 1 Z " fill="#FDB541" transform="translate(534,464)"/>
<path d="M0 0 C2 1 2 1 2 1 Z " fill="#FFB942" transform="translate(676,460)"/>
<path d="" fill="#FDB13D" transform="translate(0,0)"/>
<path d="M0 0 C2 1 2 1 2 1 Z " fill="#FDB23E" transform="translate(572,414)"/>
<path d="" fill="#FFB53F" transform="translate(0,0)"/>
<path d="" fill="#FFB642" transform="translate(0,0)"/>
<path d="M0 0 C2 1 2 1 2 1 Z " fill="#FEB642" transform="translate(720,327)"/>
<path d="M0 0 C2 1 2 1 2 1 Z " fill="#FAAF3C" transform="translate(541,296)"/>
<path d="" fill="#F8AA3A" transform="translate(0,0)"/>
<path d="M0 0 C2 1 2 1 2 1 Z " fill="#FEB742" transform="translate(656,270)"/>
<path d="M0 0 C2 1 2 1 2 1 Z " fill="#FEB542" transform="translate(350,256)"/>
<path d="" fill="#FFB540" transform="translate(0,0)"/>
<path d="" fill="#FEB540" transform="translate(0,0)"/>
<path d="M0 0 C2 1 2 1 2 1 Z " fill="#FFB740" transform="translate(540,177)"/>
<path d="M0 0 C2 1 2 1 2 1 Z " fill="#FFB53E" transform="translate(620,166)"/>
<path d="M0 0 C2 1 2 1 2 1 Z " fill="#FFB741" transform="translate(616,166)"/>
<path d="" fill="#FFB33F" transform="translate(0,0)"/>
<path d="M0 0 C2 1 2 1 2 1 Z " fill="#FFB53F" transform="translate(530,148)"/>
<path d="M0 0 C2 1 2 1 2 1 Z " fill="#F5AB3C" transform="translate(734,80)"/>
<path d="M0 0 C2 1 2 1 2 1 Z " fill="#F8AE3A" transform="translate(289,80)"/>
<path d="M0 0 C2 1 2 1 2 1 Z " fill="#FCB13C" transform="translate(542,28)"/>
<path d="" fill="#1C0E00" transform="translate(0,0)"/>
<path d="" fill="#DF962C" transform="translate(0,0)"/>
<path d="" fill="#180B00" transform="translate(0,0)"/>
<path d="" fill="#F8A937" transform="translate(0,0)"/>
<path d="" fill="#F9A534" transform="translate(0,0)"/>
<path d="" fill="#F7A937" transform="translate(0,0)"/>
<path d="" fill="#F8A938" transform="translate(0,0)"/>
<path d="" fill="#F7A837" transform="translate(0,0)"/>
<path d="" fill="#F7A836" transform="translate(0,0)"/>
<path d="" fill="#F7A735" transform="translate(0,0)"/>
<path d="" fill="#F2A334" transform="translate(0,0)"/>
<path d="" fill="#F3A334" transform="translate(0,0)"/>
<path d="" fill="#EFA135" transform="translate(0,0)"/>
<path d="" fill="#F6A435" transform="translate(0,0)"/>
<path d="" fill="#F3A234" transform="translate(0,0)"/>
<path d="" fill="#F5A234" transform="translate(0,0)"/>
<path d="" fill="#F4A334" transform="translate(0,0)"/>
<path d="" fill="#F4A333" transform="translate(0,0)"/>
<path d="" fill="#F4A533" transform="translate(0,0)"/>
<path d="" fill="#442704" transform="translate(0,0)"/>
<path d="" fill="#EF9C32" transform="translate(0,0)"/>
<path d="" fill="#F09F36" transform="translate(0,0)"/>
<path d="" fill="#F2A334" transform="translate(0,0)"/>
<path d="" fill="#ED9E31" transform="translate(0,0)"/>
<path d="" fill="#EF9F33" transform="translate(0,0)"/>
<path d="" fill="#F09D33" transform="translate(0,0)"/>
<path d="" fill="#EE9D34" transform="translate(0,0)"/>
<path d="" fill="#F0A234" transform="translate(0,0)"/>
<path d="" fill="#EFA032" transform="translate(0,0)"/>
<path d="" fill="#EC9E31" transform="translate(0,0)"/>
<path d="" fill="#ED9D31" transform="translate(0,0)"/>
<path d="" fill="#ED9E35" transform="translate(0,0)"/>
<path d="" fill="#EFA033" transform="translate(0,0)"/>
<path d="" fill="#EC9C31" transform="translate(0,0)"/>
<path d="" fill="#EE9E33" transform="translate(0,0)"/>
<path d="" fill="#EC9D34" transform="translate(0,0)"/>
<path d="" fill="#EF9F31" transform="translate(0,0)"/>
<path d="" fill="#F0A134" transform="translate(0,0)"/>
<path d="" fill="#EF9F34" transform="translate(0,0)"/>
<path d="" fill="#F0A031" transform="translate(0,0)"/>
<path d="" fill="#F1A134" transform="translate(0,0)"/>
<path d="" fill="#F3A436" transform="translate(0,0)"/>
<path d="" fill="#FEB23B" transform="translate(0,0)"/>
<path d="" fill="#FFB43A" transform="translate(0,0)"/>
<path d="" fill="#FEB13B" transform="translate(0,0)"/>
<path d="" fill="#FFAE3B" transform="translate(0,0)"/>
<path d="" fill="#FFB23D" transform="translate(0,0)"/>
<path d="" fill="#F2A135" transform="translate(0,0)"/>
<path d="" fill="#F0A136" transform="translate(0,0)"/>
<path d="" fill="#FEB138" transform="translate(0,0)"/>
<path d="" fill="#FCB23B" transform="translate(0,0)"/>
<path d="" fill="#FFB13C" transform="translate(0,0)"/>
<path d="" fill="#FFB23E" transform="translate(0,0)"/>
<path d="" fill="#FFB13F" transform="translate(0,0)"/>
<path d="" fill="#FEB239" transform="translate(0,0)"/>
<path d="" fill="#F0A037" transform="translate(0,0)"/>
<path d="" fill="#F0A134" transform="translate(0,0)"/>
<path d="" fill="#FEB03C" transform="translate(0,0)"/>
<path d="" fill="#FDB03B" transform="translate(0,0)"/>
<path d="" fill="#F2A135" transform="translate(0,0)"/>
<path d="" fill="#FFB33C" transform="translate(0,0)"/>
<path d="" fill="#FEAF3F" transform="translate(0,0)"/>
<path d="" fill="#FBB03D" transform="translate(0,0)"/>
<path d="" fill="#FFB23C" transform="translate(0,0)"/>
<path d="" fill="#F1A335" transform="translate(0,0)"/>
<path d="" fill="#FCB33D" transform="translate(0,0)"/>
<path d="" fill="#F3A435" transform="translate(0,0)"/>
<path d="" fill="#FDB03B" transform="translate(0,0)"/>
<path d="" fill="#FDB13C" transform="translate(0,0)"/>
<path d="" fill="#FFB33E" transform="translate(0,0)"/>
<path d="" fill="#FDAF3C" transform="translate(0,0)"/>
<path d="" fill="#FAAF3B" transform="translate(0,0)"/>
<path d="" fill="#FDB03C" transform="translate(0,0)"/>
<path d="" fill="#FEB23C" transform="translate(0,0)"/>
<path d="" fill="#FDB13D" transform="translate(0,0)"/>
<path d="" fill="#FDB23A" transform="translate(0,0)"/>
<path d="" fill="#FEB33B" transform="translate(0,0)"/>
<path d="" fill="#FEB43D" transform="translate(0,0)"/>
<path d="" fill="#FFB33C" transform="translate(0,0)"/>
<path d="" fill="#FEB33C" transform="translate(0,0)"/>
<path d="" fill="#FFB33C" transform="translate(0,0)"/>
<path d="" fill="#FDB13C" transform="translate(0,0)"/>
<path d="" fill="#FFB33F" transform="translate(0,0)"/>
<path d="" fill="#F4A336" transform="translate(0,0)"/>
<path d="" fill="#F4A435" transform="translate(0,0)"/>
<path d="" fill="#F1A235" transform="translate(0,0)"/>
<path d="" fill="#FFB53E" transform="translate(0,0)"/>
<path d="" fill="#FEB23C" transform="translate(0,0)"/>
<path d="" fill="#FEB33C" transform="translate(0,0)"/>
<path d="" fill="#FCB13B" transform="translate(0,0)"/>
<path d="" fill="#FCB43C" transform="translate(0,0)"/>
<path d="" fill="#FCB23C" transform="translate(0,0)"/>
<path d="" fill="#FEB540" transform="translate(0,0)"/>
<path d="" fill="#FEB53F" transform="translate(0,0)"/>
<path d="" fill="#FFB53D" transform="translate(0,0)"/>
<path d="" fill="#FFB33C" transform="translate(0,0)"/>
<path d="" fill="#FDB33C" transform="translate(0,0)"/>
<path d="" fill="#FEB13C" transform="translate(0,0)"/>
<path d="" fill="#F4A537" transform="translate(0,0)"/>
<path d="" fill="#FFB33C" transform="translate(0,0)"/>
<path d="" fill="#FFB23C" transform="translate(0,0)"/>
<path d="" fill="#F6A839" transform="translate(0,0)"/>
<path d="" fill="#FFB03C" transform="translate(0,0)"/>
<path d="" fill="#FEB13C" transform="translate(0,0)"/>
<path d="" fill="#FDAF3C" transform="translate(0,0)"/>
<path d="" fill="#FEAF3D" transform="translate(0,0)"/>
<path d="" fill="#FDB33B" transform="translate(0,0)"/>
<path d="" fill="#F5A739" transform="translate(0,0)"/>
<path d="" fill="#FDB23E" transform="translate(0,0)"/>
<path d="" fill="#FCB33B" transform="translate(0,0)"/>
<path d="" fill="#FEB03C" transform="translate(0,0)"/>
<path d="" fill="#FFB641" transform="translate(0,0)"/>
<path d="" fill="#FCB33C" transform="translate(0,0)"/>
<path d="" fill="#F7AA38" transform="translate(0,0)"/>
<path d="" fill="#F6A738" transform="translate(0,0)"/>
<path d="" fill="#FDB33C" transform="translate(0,0)"/>
<path d="" fill="#FCB03B" transform="translate(0,0)"/>
<path d="" fill="#FFB23D" transform="translate(0,0)"/>
<path d="" fill="#FFB43C" transform="translate(0,0)"/>
<path d="" fill="#FCB33C" transform="translate(0,0)"/>
<path d="" fill="#FEB440" transform="translate(0,0)"/>
<path d="" fill="#FEB33C" transform="translate(0,0)"/>
<path d="" fill="#FFB03E" transform="translate(0,0)"/>
<path d="" fill="#FDB53C" transform="translate(0,0)"/>
<path d="" fill="#FFB33A" transform="translate(0,0)"/>
<path d="" fill="#F9AA39" transform="translate(0,0)"/>
<path d="" fill="#FEB13C" transform="translate(0,0)"/>
<path d="" fill="#FDB53B" transform="translate(0,0)"/>
<path d="" fill="#FEB03A" transform="translate(0,0)"/>
<path d="" fill="#FFB23E" transform="translate(0,0)"/>
<path d="" fill="#FEB43B" transform="translate(0,0)"/>
<path d="" fill="#FFB23D" transform="translate(0,0)"/>
<path d="" fill="#FEB33D" transform="translate(0,0)"/>
<path d="" fill="#FFB43F" transform="translate(0,0)"/>
<path d="" fill="#FFB43D" transform="translate(0,0)"/>
<path d="" fill="#FFB23F" transform="translate(0,0)"/>
<path d="" fill="#FFB63B" transform="translate(0,0)"/>
<path d="" fill="#FFB33C" transform="translate(0,0)"/>
<path d="" fill="#F7A839" transform="translate(0,0)"/>
<path d="" fill="#F7AA3B" transform="translate(0,0)"/>
<path d="" fill="#FEB23B" transform="translate(0,0)"/>
<path d="" fill="#FFB43C" transform="translate(0,0)"/>
<path d="" fill="#FDB33E" transform="translate(0,0)"/>
<path d="" fill="#FFB33C" transform="translate(0,0)"/>
<path d="" fill="#FFB43E" transform="translate(0,0)"/>
<path d="" fill="#FFB53C" transform="translate(0,0)"/>
<path d="" fill="#FFB33D" transform="translate(0,0)"/>
<path d="" fill="#FFB63E" transform="translate(0,0)"/>
<path d="" fill="#FEB43E" transform="translate(0,0)"/>
<path d="" fill="#FEB33D" transform="translate(0,0)"/>
<path d="" fill="#FFB53D" transform="translate(0,0)"/>
<path d="" fill="#FFB43F" transform="translate(0,0)"/>
<path d="" fill="#FDB23C" transform="translate(0,0)"/>
<path d="" fill="#FBAB39" transform="translate(0,0)"/>
<path d="" fill="#FEB33C" transform="translate(0,0)"/>
<path d="" fill="#F9AC39" transform="translate(0,0)"/>
<path d="" fill="#FFB43D" transform="translate(0,0)"/>
<path d="" fill="#FDB43D" transform="translate(0,0)"/>
<path d="" fill="#FFB23D" transform="translate(0,0)"/>
<path d="" fill="#FFB43D" transform="translate(0,0)"/>
<path d="" fill="#FFB23D" transform="translate(0,0)"/>
<path d="" fill="#FFB23E" transform="translate(0,0)"/>
<path d="" fill="#FFB33D" transform="translate(0,0)"/>
<path d="" fill="#FFB23E" transform="translate(0,0)"/>
<path d="" fill="#FFB23C" transform="translate(0,0)"/>
<path d="" fill="#FFB23D" transform="translate(0,0)"/>
<path d="" fill="#FFB53E" transform="translate(0,0)"/>
<path d="" fill="#FFB43C" transform="translate(0,0)"/>
<path d="" fill="#FDB13A" transform="translate(0,0)"/>
<path d="" fill="#FCAE3B" transform="translate(0,0)"/>
<path d="" fill="#FFB63F" transform="translate(0,0)"/>
<path d="" fill="#FFB23E" transform="translate(0,0)"/>
<path d="" fill="#FFB43F" transform="translate(0,0)"/>
<path d="" fill="#FFB53E" transform="translate(0,0)"/>
<path d="" fill="#FAB03F" transform="translate(0,0)"/>
<path d="" fill="#FFB43F" transform="translate(0,0)"/>
<path d="" fill="#FFB43E" transform="translate(0,0)"/>
<path d="" fill="#FFB43E" transform="translate(0,0)"/>
<path d="" fill="#FDB33B" transform="translate(0,0)"/>
<path d="" fill="#FDAD3E" transform="translate(0,0)"/>
<path d="" fill="#FAAF3B" transform="translate(0,0)"/>
<path d="" fill="#FCAF3A" transform="translate(0,0)"/>
<path d="" fill="#FFB23F" transform="translate(0,0)"/>
<path d="" fill="#FEB13A" transform="translate(0,0)"/>
<path d="" fill="#FFB13C" transform="translate(0,0)"/>
<path d="" fill="#FFB43D" transform="translate(0,0)"/>
<path d="" fill="#FFB13B" transform="translate(0,0)"/>
<path d="" fill="#FEB43F" transform="translate(0,0)"/>
<path d="" fill="#FFB13F" transform="translate(0,0)"/>
<path d="" fill="#FFB13D" transform="translate(0,0)"/>
<path d="" fill="#FFB33C" transform="translate(0,0)"/>
<path d="" fill="#FFB23C" transform="translate(0,0)"/>
<path d="" fill="#FFB33D" transform="translate(0,0)"/>
<path d="" fill="#FCAF3C" transform="translate(0,0)"/>
<path d="" fill="#FDB840" transform="translate(0,0)"/>
<path d="" fill="#FFB641" transform="translate(0,0)"/>
<path d="" fill="#FEB741" transform="translate(0,0)"/>
<path d="" fill="#FEB741" transform="translate(0,0)"/>
<path d="" fill="#FEB63F" transform="translate(0,0)"/>
<path d="" fill="#FDB03A" transform="translate(0,0)"/>
<path d="" fill="#FEB83E" transform="translate(0,0)"/>
<path d="" fill="#FFB842" transform="translate(0,0)"/>
<path d="" fill="#FFB843" transform="translate(0,0)"/>
<path d="" fill="#FEB641" transform="translate(0,0)"/>
<path d="" fill="#FFB841" transform="translate(0,0)"/>
<path d="" fill="#FEAE3F" transform="translate(0,0)"/>
<path d="" fill="#FEAF3E" transform="translate(0,0)"/>
<path d="" fill="#FFB641" transform="translate(0,0)"/>
<path d="" fill="#FDB23F" transform="translate(0,0)"/>
<path d="" fill="#FFBC45" transform="translate(0,0)"/>
<path d="" fill="#FFB441" transform="translate(0,0)"/>
<path d="" fill="#FDAD3C" transform="translate(0,0)"/>
<path d="" fill="#FFBB46" transform="translate(0,0)"/>
<path d="" fill="#FCB43E" transform="translate(0,0)"/>
<path d="" fill="#FFB03E" transform="translate(0,0)"/>
<path d="" fill="#FFBD47" transform="translate(0,0)"/>
<path d="" fill="#FFB643" transform="translate(0,0)"/>
<path d="" fill="#FDB03E" transform="translate(0,0)"/>
<path d="" fill="#FFBF48" transform="translate(0,0)"/>
<path d="" fill="#FFBB45" transform="translate(0,0)"/>
<path d="" fill="#FFB840" transform="translate(0,0)"/>
<path d="" fill="#FFBE48" transform="translate(0,0)"/>
<path d="" fill="#FFB742" transform="translate(0,0)"/>
<path d="" fill="#FDC149" transform="translate(0,0)"/>
<path d="" fill="#FFC049" transform="translate(0,0)"/>
<path d="" fill="#FFB844" transform="translate(0,0)"/>
<path d="" fill="#FFB23F" transform="translate(0,0)"/>
<path d="" fill="#FFB844" transform="translate(0,0)"/>
<path d="" fill="#FFB840" transform="translate(0,0)"/>
<path d="" fill="#FFB23E" transform="translate(0,0)"/>
<path d="" fill="#FEB43D" transform="translate(0,0)"/>
<path d="" fill="#FFBE47" transform="translate(0,0)"/>
<path d="" fill="#FFBE47" transform="translate(0,0)"/>
<path d="" fill="#FFB33D" transform="translate(0,0)"/>
<path d="" fill="#FFC34A" transform="translate(0,0)"/>
<path d="" fill="#FFC04A" transform="translate(0,0)"/>
<path d="" fill="#FFBD48" transform="translate(0,0)"/>
<path d="" fill="#FFC148" transform="translate(0,0)"/>
<path d="" fill="#FFBD49" transform="translate(0,0)"/>
<path d="" fill="#FEBF48" transform="translate(0,0)"/>
<path d="" fill="#FFBE4A" transform="translate(0,0)"/>
<path d="" fill="#FFB33E" transform="translate(0,0)"/>
<path d="" fill="#FEC047" transform="translate(0,0)"/>
<path d="" fill="#FFBC47" transform="translate(0,0)"/>
<path d="" fill="#FFBB48" transform="translate(0,0)"/>
<path d="" fill="#FFBB44" transform="translate(0,0)"/>
<path d="" fill="#FEB43E" transform="translate(0,0)"/>
<path d="" fill="#FFB33F" transform="translate(0,0)"/>
<path d="" fill="#FFBE4A" transform="translate(0,0)"/>
<path d="" fill="#FFBF4B" transform="translate(0,0)"/>
<path d="" fill="#FFBA46" transform="translate(0,0)"/>
<path d="" fill="#FFB844" transform="translate(0,0)"/>
<path d="" fill="#FDC049" transform="translate(0,0)"/>
<path d="" fill="#FFBF49" transform="translate(0,0)"/>
<path d="" fill="#FFB442" transform="translate(0,0)"/>
<path d="" fill="#FDB742" transform="translate(0,0)"/>
<path d="" fill="#FEB642" transform="translate(0,0)"/>
<path d="" fill="#FDC04A" transform="translate(0,0)"/>
<path d="" fill="#FFB742" transform="translate(0,0)"/>
<path d="" fill="#FEB944" transform="translate(0,0)"/>
<path d="" fill="#FFB33F" transform="translate(0,0)"/>
<path d="" fill="#FFB13D" transform="translate(0,0)"/>
<path d="" fill="#FFBA42" transform="translate(0,0)"/>
<path d="" fill="#FFB640" transform="translate(0,0)"/>
<path d="" fill="#FFB743" transform="translate(0,0)"/>
<path d="" fill="#FFB742" transform="translate(0,0)"/>
<path d="" fill="#FFB23F" transform="translate(0,0)"/>
<path d="" fill="#FFBD48" transform="translate(0,0)"/>
<path d="" fill="#FFB840" transform="translate(0,0)"/>
<path d="" fill="#FEBC48" transform="translate(0,0)"/>
<path d="" fill="#FFB840" transform="translate(0,0)"/>
<path d="" fill="#FEB83F" transform="translate(0,0)"/>
<path d="" fill="#FFB841" transform="translate(0,0)"/>
<path d="" fill="#FFB841" transform="translate(0,0)"/>
<path d="" fill="#FFBA43" transform="translate(0,0)"/>
<path d="" fill="#FFB841" transform="translate(0,0)"/>
<path d="" fill="#FFB941" transform="translate(0,0)"/>
<path d="" fill="#FCB541" transform="translate(0,0)"/>
<path d="" fill="#FFB53F" transform="translate(0,0)"/>
<path d="" fill="#FBBA41" transform="translate(0,0)"/>
<path d="" fill="#FFB63F" transform="translate(0,0)"/>
<path d="" fill="#FFB840" transform="translate(0,0)"/>
<path d="" fill="#FEB642" transform="translate(0,0)"/>
<path d="" fill="#FFBA43" transform="translate(0,0)"/>
<path d="" fill="#FFB941" transform="translate(0,0)"/>
<path d="" fill="#FCB13F" transform="translate(0,0)"/>
<path d="" fill="#FDBB3E" transform="translate(0,0)"/>
<path d="" fill="#FFB941" transform="translate(0,0)"/>
<path d="" fill="#FEB540" transform="translate(0,0)"/>
<path d="" fill="#FFB843" transform="translate(0,0)"/>
<path d="" fill="#FFBB45" transform="translate(0,0)"/>
<path d="" fill="#FFBC45" transform="translate(0,0)"/>
<path d="" fill="#FFBD46" transform="translate(0,0)"/>
<path d="" fill="#FEB540" transform="translate(0,0)"/>
<path d="" fill="#FFB841" transform="translate(0,0)"/>
<path d="" fill="#FFB942" transform="translate(0,0)"/>
<path d="" fill="#FFB440" transform="translate(0,0)"/>
<path d="" fill="#FFB642" transform="translate(0,0)"/>
<path d="" fill="#FFBA41" transform="translate(0,0)"/>
<path d="" fill="#FFB340" transform="translate(0,0)"/>
<path d="" fill="#FFB73F" transform="translate(0,0)"/>
<path d="" fill="#FDB43E" transform="translate(0,0)"/>
<path d="" fill="#FEB33F" transform="translate(0,0)"/>
<path d="" fill="#FFB93F" transform="translate(0,0)"/>
<path d="" fill="#FFB640" transform="translate(0,0)"/>
<path d="" fill="#FFB543" transform="translate(0,0)"/>
<path d="" fill="#FFB43E" transform="translate(0,0)"/>
<path d="" fill="#FFB743" transform="translate(0,0)"/>
<path d="" fill="#FEB83E" transform="translate(0,0)"/>
<path d="" fill="#FEB740" transform="translate(0,0)"/>
<path d="" fill="#FFB641" transform="translate(0,0)"/>
<path d="" fill="#FFB63F" transform="translate(0,0)"/>
<path d="" fill="#FFBB42" transform="translate(0,0)"/>
<path d="" fill="#FFB541" transform="translate(0,0)"/>
<path d="" fill="#FFB33E" transform="translate(0,0)"/>
<path d="" fill="#FEB13F" transform="translate(0,0)"/>
<path d="" fill="#FFB740" transform="translate(0,0)"/>
<path d="" fill="#FEB240" transform="translate(0,0)"/>
<path d="" fill="#FDB23F" transform="translate(0,0)"/>
<path d="" fill="#FBB23E" transform="translate(0,0)"/>
<path d="" fill="#FCB03E" transform="translate(0,0)"/>
<path d="" fill="#FEB33F" transform="translate(0,0)"/>
<path d="" fill="#FCB33B" transform="translate(0,0)"/>
<path d="" fill="#FDB23E" transform="translate(0,0)"/>
<path d="" fill="#FDB43F" transform="translate(0,0)"/>
<path d="" fill="#FFB340" transform="translate(0,0)"/>
<path d="" fill="#FEB23E" transform="translate(0,0)"/>
<path d="" fill="#FCB640" transform="translate(0,0)"/>
<path d="" fill="#FEB33E" transform="translate(0,0)"/>
<path d="" fill="#FCAF3C" transform="translate(0,0)"/>
<path d="" fill="#FFB33D" transform="translate(0,0)"/>
<path d="" fill="#FFB33E" transform="translate(0,0)"/>
<path d="" fill="#FFB440" transform="translate(0,0)"/>
<path d="" fill="#FFB940" transform="translate(0,0)"/>
<path d="" fill="#FDB33D" transform="translate(0,0)"/>
<path d="" fill="#FCAD3A" transform="translate(0,0)"/>
<path d="" fill="#FCAC39" transform="translate(0,0)"/>
<path d="" fill="#FEB43E" transform="translate(0,0)"/>
<path d="" fill="#FEB53F" transform="translate(0,0)"/>
<path d="" fill="#FCB43E" transform="translate(0,0)"/>
<path d="" fill="#FDB23C" transform="translate(0,0)"/>
<path d="" fill="#FFB13F" transform="translate(0,0)"/>
<path d="" fill="#FCB43D" transform="translate(0,0)"/>
<path d="" fill="#FFB341" transform="translate(0,0)"/>
<path d="" fill="#FFB33D" transform="translate(0,0)"/>
<path d="" fill="#FDAE3B" transform="translate(0,0)"/>
<path d="" fill="#FCB03C" transform="translate(0,0)"/>
<path d="" fill="#FBAF3E" transform="translate(0,0)"/>
<path d="" fill="#FDB23E" transform="translate(0,0)"/>
<path d="" fill="#FFB743" transform="translate(0,0)"/>
<path d="" fill="#FCB03D" transform="translate(0,0)"/>
<path d="" fill="#FFB341" transform="translate(0,0)"/>
<path d="" fill="#F9AF3F" transform="translate(0,0)"/>
<path d="" fill="#FFB33E" transform="translate(0,0)"/>
<path d="" fill="#FDB13E" transform="translate(0,0)"/>
<path d="" fill="#F5AC3D" transform="translate(0,0)"/>
<path d="" fill="#FFB640" transform="translate(0,0)"/>
<path d="" fill="#FFB642" transform="translate(0,0)"/>
<path d="" fill="#FFB440" transform="translate(0,0)"/>
<path d="" fill="#FFB741" transform="translate(0,0)"/>
<path d="" fill="#F9AD3E" transform="translate(0,0)"/>
<path d="" fill="#FDB43E" transform="translate(0,0)"/>
<path d="" fill="#FFB540" transform="translate(0,0)"/>
<path d="" fill="#FFB641" transform="translate(0,0)"/>
<path d="" fill="#FEB33E" transform="translate(0,0)"/>
<path d="" fill="#FFB43F" transform="translate(0,0)"/>
<path d="" fill="#FBB23E" transform="translate(0,0)"/>
<path d="" fill="#FEB642" transform="translate(0,0)"/>
<path d="" fill="#FBB03E" transform="translate(0,0)"/>
<path d="" fill="#FEB942" transform="translate(0,0)"/>
<path d="" fill="#FEB63F" transform="translate(0,0)"/>
<path d="" fill="#FEB73F" transform="translate(0,0)"/>
<path d="" fill="#FFB840" transform="translate(0,0)"/>
<path d="" fill="#FFB842" transform="translate(0,0)"/>
<path d="" fill="#FFB53F" transform="translate(0,0)"/>
<path d="" fill="#FCB540" transform="translate(0,0)"/>
<path d="" fill="#FDB53F" transform="translate(0,0)"/>
<path d="" fill="#FFB843" transform="translate(0,0)"/>
<path d="" fill="#FFB841" transform="translate(0,0)"/>
<path d="" fill="#FFB741" transform="translate(0,0)"/>
<path d="" fill="#FFB640" transform="translate(0,0)"/>
<path d="" fill="#FFB743" transform="translate(0,0)"/>
<path d="" fill="#FDB43D" transform="translate(0,0)"/>
<path d="" fill="#F7A93A" transform="translate(0,0)"/>
<path d="" fill="#FFB742" transform="translate(0,0)"/>
<path d="" fill="#FFBA41" transform="translate(0,0)"/>
<path d="" fill="#FFB642" transform="translate(0,0)"/>
<path d="" fill="#F7AE3D" transform="translate(0,0)"/>
<path d="" fill="#F9AA3D" transform="translate(0,0)"/>
<path d="" fill="#FDB33F" transform="translate(0,0)"/>
<path d="" fill="#F6AA3C" transform="translate(0,0)"/>
<path d="" fill="#FFB541" transform="translate(0,0)"/>
<path d="" fill="#F4AA3A" transform="translate(0,0)"/>
<path d="" fill="#FFB53F" transform="translate(0,0)"/>
<path d="" fill="#FEB641" transform="translate(0,0)"/>
<path d="" fill="#FFB640" transform="translate(0,0)"/>
<path d="" fill="#FFB53F" transform="translate(0,0)"/>
<path d="" fill="#F2A83C" transform="translate(0,0)"/>
<path d="" fill="#F4A93A" transform="translate(0,0)"/>
<path d="" fill="#FDB440" transform="translate(0,0)"/>
<path d="" fill="#FEB53F" transform="translate(0,0)"/>
<path d="" fill="#FEB73F" transform="translate(0,0)"/>
<path d="" fill="#FFB740" transform="translate(0,0)"/>
<path d="" fill="#F7AA3B" transform="translate(0,0)"/>
<path d="" fill="#F4AB3B" transform="translate(0,0)"/>
<path d="" fill="#FEB440" transform="translate(0,0)"/>
<path d="" fill="#FFB63F" transform="translate(0,0)"/>
<path d="" fill="#F6AB3A" transform="translate(0,0)"/>
<path d="" fill="#F6AC3B" transform="translate(0,0)"/>
<path d="" fill="#FFB73F" transform="translate(0,0)"/>
<path d="" fill="#FFB641" transform="translate(0,0)"/>
<path d="" fill="#FFB440" transform="translate(0,0)"/>
<path d="" fill="#FFB542" transform="translate(0,0)"/>
<path d="" fill="#FFB440" transform="translate(0,0)"/>
<path d="" fill="#FFB73D" transform="translate(0,0)"/>
<path d="" fill="#FDB541" transform="translate(0,0)"/>
<path d="" fill="#FFB63F" transform="translate(0,0)"/>
<path d="" fill="#FFB742" transform="translate(0,0)"/>
<path d="" fill="#FFB741" transform="translate(0,0)"/>
<path d="" fill="#FFB43F" transform="translate(0,0)"/>
<path d="" fill="#F3AA3B" transform="translate(0,0)"/>
<path d="" fill="#F1A637" transform="translate(0,0)"/>
<path d="" fill="#FEB33F" transform="translate(0,0)"/>
<path d="" fill="#FEB83F" transform="translate(0,0)"/>
<path d="" fill="#F1A438" transform="translate(0,0)"/>
<path d="" fill="#F0A73A" transform="translate(0,0)"/>
<path d="" fill="#FFB43F" transform="translate(0,0)"/>
<path d="" fill="#FFB541" transform="translate(0,0)"/>
<path d="" fill="#FFB43E" transform="translate(0,0)"/>
<path d="" fill="#FFB543" transform="translate(0,0)"/>
<path d="" fill="#FFB43F" transform="translate(0,0)"/>
<path d="" fill="#FFB440" transform="translate(0,0)"/>
<path d="" fill="#FFB640" transform="translate(0,0)"/>
<path d="" fill="#FFB53F" transform="translate(0,0)"/>
<path d="" fill="#FFB53E" transform="translate(0,0)"/>
<path d="" fill="#FFB741" transform="translate(0,0)"/>
<path d="" fill="#F0A738" transform="translate(0,0)"/>
<path d="" fill="#FFB53D" transform="translate(0,0)"/>
<path d="" fill="#F5A939" transform="translate(0,0)"/>
<path d="" fill="#FFB73C" transform="translate(0,0)"/>
<path d="" fill="#FDB53F" transform="translate(0,0)"/>
<path d="" fill="#FEB33F" transform="translate(0,0)"/>
<path d="" fill="#FFB53F" transform="translate(0,0)"/>
<path d="" fill="#F5AA3D" transform="translate(0,0)"/>
<path d="" fill="#FFB73D" transform="translate(0,0)"/>
<path d="" fill="#FFB640" transform="translate(0,0)"/>
<path d="" fill="#FEB53E" transform="translate(0,0)"/>
<path d="" fill="#F8AA3A" transform="translate(0,0)"/>
<path d="" fill="#F5A837" transform="translate(0,0)"/>
<path d="" fill="#F5A838" transform="translate(0,0)"/>
<path d="" fill="#EEA435" transform="translate(0,0)"/>
<path d="" fill="#F7A939" transform="translate(0,0)"/>
<path d="" fill="#F6A838" transform="translate(0,0)"/>
<path d="" fill="#F4AA39" transform="translate(0,0)"/>
<path d="" fill="#EEA339" transform="translate(0,0)"/>
<path d="" fill="#F3AB3A" transform="translate(0,0)"/>
<path d="" fill="#F7AC39" transform="translate(0,0)"/>
<path d="" fill="#F9AD3C" transform="translate(0,0)"/>
<path d="" fill="#FAAA3D" transform="translate(0,0)"/>
<path d="" fill="#FAAD3A" transform="translate(0,0)"/>
<path d="" fill="#F9AD3C" transform="translate(0,0)"/>
<path d="" fill="#F6AC3B" transform="translate(0,0)"/>
<path d="" fill="#FCAE3D" transform="translate(0,0)"/>
<path d="" fill="#F7AE3C" transform="translate(0,0)"/>
<path d="" fill="#FAAF3B" transform="translate(0,0)"/>
<path d="" fill="#371F01" transform="translate(0,0)"/>
<path d="" fill="#FDB23F" transform="translate(0,0)"/>
<path d="" fill="#FAB03F" transform="translate(0,0)"/>
<path d="" fill="#FCB23B" transform="translate(0,0)"/>
<path d="" fill="#FBB03F" transform="translate(0,0)"/>
<path d="" fill="#FDB33C" transform="translate(0,0)"/>
<path d="" fill="#FEB13D" transform="translate(0,0)"/>
<path d="" fill="#FCB23E" transform="translate(0,0)"/>
<path d="" fill="#FFB13B" transform="translate(0,0)"/>
<path d="" fill="#FEB33E" transform="translate(0,0)"/>
<path d="" fill="#FEB23C" transform="translate(0,0)"/>
<path d="" fill="#FFB13C" transform="translate(0,0)"/>
<path d="" fill="#FFB43D" transform="translate(0,0)"/>
<path d="" fill="#FFB440" transform="translate(0,0)"/>
<path d="" fill="#FFB43D" transform="translate(0,0)"/>
</svg>
